G04 #@! TF.FileFunction,Soldermask,Bot*
%FSLAX46Y46*%
G04 Gerber Fmt 4.6, Leading zero omitted, Abs format (unit mm)*
G04 Created by KiCad (PCBNEW 4.0.1-stable) date 2016 September 01, Thursday 02:04:04*
%MOMM*%
G01*
G04 APERTURE LIST*
%ADD10C,0.100000*%
G04 APERTURE END LIST*
D10*
G36*
X49798780Y-55548080D02*
X48801220Y-55548080D01*
X48801220Y-54550520D01*
X49798780Y-54550520D01*
X49798780Y-55548080D01*
X49798780Y-55548080D01*
G37*
G36*
X51198780Y-55548080D02*
X50201220Y-55548080D01*
X50201220Y-54550520D01*
X51198780Y-54550520D01*
X51198780Y-55548080D01*
X51198780Y-55548080D01*
G37*
G36*
X54175000Y-54550000D02*
X53225000Y-54550000D01*
X53225000Y-53550000D01*
X54175000Y-53550000D01*
X54175000Y-54550000D01*
X54175000Y-54550000D01*
G37*
G36*
X52800000Y-54450000D02*
X52000000Y-54450000D01*
X52000000Y-53850000D01*
X52800000Y-53850000D01*
X52800000Y-54450000D01*
X52800000Y-54450000D01*
G37*
G36*
X49798780Y-54049480D02*
X48801220Y-54049480D01*
X48801220Y-53051920D01*
X49798780Y-53051920D01*
X49798780Y-54049480D01*
X49798780Y-54049480D01*
G37*
G36*
X51198780Y-54049480D02*
X50201220Y-54049480D01*
X50201220Y-53051920D01*
X51198780Y-53051920D01*
X51198780Y-54049480D01*
X51198780Y-54049480D01*
G37*
G36*
X52800000Y-53550000D02*
X52000000Y-53550000D01*
X52000000Y-52950000D01*
X52800000Y-52950000D01*
X52800000Y-53550000D01*
X52800000Y-53550000D01*
G37*
G36*
X54175000Y-53050000D02*
X53225000Y-53050000D01*
X53225000Y-52050000D01*
X54175000Y-52050000D01*
X54175000Y-53050000D01*
X54175000Y-53050000D01*
G37*
G36*
X47550000Y-53000000D02*
X46950000Y-53000000D01*
X46950000Y-52200000D01*
X47550000Y-52200000D01*
X47550000Y-53000000D01*
X47550000Y-53000000D01*
G37*
G36*
X48450000Y-53000000D02*
X47850000Y-53000000D01*
X47850000Y-52200000D01*
X48450000Y-52200000D01*
X48450000Y-53000000D01*
X48450000Y-53000000D01*
G37*
G36*
X51150000Y-51950000D02*
X48850000Y-51950000D01*
X48850000Y-48800000D01*
X49550000Y-48800000D01*
X49550000Y-51200000D01*
X49551980Y-51213930D01*
X49557761Y-51226756D01*
X49566888Y-51237464D01*
X49578636Y-51245206D01*
X49592076Y-51249368D01*
X49600000Y-51250000D01*
X50400000Y-51250000D01*
X50413930Y-51248020D01*
X50426756Y-51242239D01*
X50437464Y-51233112D01*
X50445206Y-51221364D01*
X50449368Y-51207924D01*
X50450000Y-51200000D01*
X50450000Y-48800000D01*
X50448020Y-48786070D01*
X50442239Y-48773244D01*
X50433112Y-48762536D01*
X50421364Y-48754794D01*
X50407924Y-48750632D01*
X50400000Y-48750000D01*
X49600000Y-48750000D01*
X49586070Y-48751980D01*
X49573244Y-48757761D01*
X49562536Y-48766888D01*
X49554794Y-48778636D01*
X49550632Y-48792076D01*
X49550000Y-48800000D01*
X48850000Y-48800000D01*
X48850000Y-48050000D01*
X51150000Y-48050000D01*
X51150000Y-51950000D01*
X51150000Y-51950000D01*
G37*
G36*
X53000000Y-51750000D02*
X52200000Y-51750000D01*
X52200000Y-51150000D01*
X53000000Y-51150000D01*
X53000000Y-51750000D01*
X53000000Y-51750000D01*
G37*
G36*
X47550000Y-51450000D02*
X46850000Y-51450000D01*
X46850000Y-50650000D01*
X47550000Y-50650000D01*
X47550000Y-51450000D01*
X47550000Y-51450000D01*
G37*
G36*
X54100000Y-51250000D02*
X53300000Y-51250000D01*
X53300000Y-50650000D01*
X54100000Y-50650000D01*
X54100000Y-51250000D01*
X54100000Y-51250000D01*
G37*
G36*
X53000000Y-50850000D02*
X52200000Y-50850000D01*
X52200000Y-50250000D01*
X53000000Y-50250000D01*
X53000000Y-50850000D01*
X53000000Y-50850000D01*
G37*
G36*
X54100000Y-50350000D02*
X53300000Y-50350000D01*
X53300000Y-49750000D01*
X54100000Y-49750000D01*
X54100000Y-50350000D01*
X54100000Y-50350000D01*
G37*
G36*
X47550000Y-50350000D02*
X46850000Y-50350000D01*
X46850000Y-49550000D01*
X47550000Y-49550000D01*
X47550000Y-50350000D01*
X47550000Y-50350000D01*
G37*
G36*
X48050000Y-49150000D02*
X47350000Y-49150000D01*
X47350000Y-48350000D01*
X48050000Y-48350000D01*
X48050000Y-49150000D01*
X48050000Y-49150000D01*
G37*
G36*
X47050000Y-49150000D02*
X46350000Y-49150000D01*
X46350000Y-48350000D01*
X47050000Y-48350000D01*
X47050000Y-49150000D01*
X47050000Y-49150000D01*
G37*
G36*
X54150000Y-48475000D02*
X53150000Y-48475000D01*
X53150000Y-47525000D01*
X54150000Y-47525000D01*
X54150000Y-48475000D01*
X54150000Y-48475000D01*
G37*
G36*
X52650000Y-48475000D02*
X51650000Y-48475000D01*
X51650000Y-47525000D01*
X52650000Y-47525000D01*
X52650000Y-48475000D01*
X52650000Y-48475000D01*
G37*
G36*
X47050000Y-48050000D02*
X46350000Y-48050000D01*
X46350000Y-47250000D01*
X47050000Y-47250000D01*
X47050000Y-48050000D01*
X47050000Y-48050000D01*
G37*
G36*
X48050000Y-48050000D02*
X47350000Y-48050000D01*
X47350000Y-47250000D01*
X48050000Y-47250000D01*
X48050000Y-48050000D01*
X48050000Y-48050000D01*
G37*
G36*
X41241578Y-41701530D02*
X41683421Y-41792227D01*
X42099228Y-41967016D01*
X42473170Y-42219242D01*
X42790999Y-42539299D01*
X43040610Y-42914992D01*
X43212489Y-43332006D01*
X43300033Y-43774130D01*
X43300033Y-43774139D01*
X43300099Y-43774473D01*
X43292905Y-44289661D01*
X43292829Y-44289995D01*
X43292829Y-44290007D01*
X43192978Y-44729504D01*
X43009517Y-45141564D01*
X42749516Y-45510139D01*
X42422871Y-45821199D01*
X42042038Y-46062882D01*
X41621508Y-46225996D01*
X41177310Y-46304319D01*
X40726355Y-46294874D01*
X40285817Y-46198015D01*
X39872492Y-46017438D01*
X39502110Y-45760015D01*
X39188780Y-45435552D01*
X38944443Y-45056416D01*
X38778399Y-44637036D01*
X38696974Y-44193387D01*
X38703272Y-43742379D01*
X38797050Y-43301186D01*
X38974741Y-42886604D01*
X39229571Y-42514434D01*
X39551838Y-42198846D01*
X39929262Y-41951867D01*
X40347472Y-41782899D01*
X40790533Y-41698380D01*
X41241578Y-41701530D01*
X41241578Y-41701530D01*
G37*
G36*
X59241578Y-41701530D02*
X59683421Y-41792227D01*
X60099228Y-41967016D01*
X60473170Y-42219242D01*
X60790999Y-42539299D01*
X61040610Y-42914992D01*
X61212489Y-43332006D01*
X61300033Y-43774130D01*
X61300033Y-43774139D01*
X61300099Y-43774473D01*
X61292905Y-44289661D01*
X61292829Y-44289995D01*
X61292829Y-44290007D01*
X61192978Y-44729504D01*
X61009517Y-45141564D01*
X60749516Y-45510139D01*
X60422871Y-45821199D01*
X60042038Y-46062882D01*
X59621508Y-46225996D01*
X59177310Y-46304319D01*
X58726355Y-46294874D01*
X58285817Y-46198015D01*
X57872492Y-46017438D01*
X57502110Y-45760015D01*
X57188780Y-45435552D01*
X56944443Y-45056416D01*
X56778399Y-44637036D01*
X56696974Y-44193387D01*
X56703272Y-43742379D01*
X56797050Y-43301186D01*
X56974741Y-42886604D01*
X57229571Y-42514434D01*
X57551838Y-42198846D01*
X57929262Y-41951867D01*
X58347472Y-41782899D01*
X58790533Y-41698380D01*
X59241578Y-41701530D01*
X59241578Y-41701530D01*
G37*
G36*
X54250000Y-44500000D02*
X53250000Y-44500000D01*
X53250000Y-43500000D01*
X54250000Y-43500000D01*
X54250000Y-44500000D01*
X54250000Y-44500000D01*
G37*
G36*
X46255017Y-43500018D02*
X46259400Y-43500049D01*
X46356375Y-43510926D01*
X46449390Y-43540432D01*
X46534903Y-43587443D01*
X46609655Y-43650168D01*
X46670801Y-43726218D01*
X46716011Y-43812697D01*
X46743563Y-43906309D01*
X46743566Y-43906343D01*
X46743570Y-43906356D01*
X46752410Y-44003488D01*
X46742213Y-44100491D01*
X46742212Y-44100496D01*
X46742207Y-44100539D01*
X46713351Y-44193758D01*
X46666938Y-44279596D01*
X46604736Y-44354785D01*
X46529115Y-44416461D01*
X46442954Y-44462273D01*
X46349536Y-44490478D01*
X46252419Y-44500000D01*
X46247549Y-44500000D01*
X46244983Y-44499982D01*
X46240600Y-44499951D01*
X46143625Y-44489074D01*
X46050610Y-44459568D01*
X45965097Y-44412557D01*
X45890345Y-44349832D01*
X45829199Y-44273782D01*
X45783989Y-44187303D01*
X45756437Y-44093691D01*
X45756434Y-44093657D01*
X45756430Y-44093644D01*
X45747590Y-43996512D01*
X45757787Y-43899509D01*
X45757788Y-43899504D01*
X45757793Y-43899461D01*
X45786649Y-43806242D01*
X45833062Y-43720404D01*
X45895264Y-43645215D01*
X45970885Y-43583539D01*
X46057046Y-43537727D01*
X46150464Y-43509522D01*
X46247581Y-43500000D01*
X46252451Y-43500000D01*
X46255017Y-43500018D01*
X46255017Y-43500018D01*
G37*
G36*
X47505017Y-43500018D02*
X47509400Y-43500049D01*
X47606375Y-43510926D01*
X47699390Y-43540432D01*
X47784903Y-43587443D01*
X47859655Y-43650168D01*
X47920801Y-43726218D01*
X47966011Y-43812697D01*
X47993563Y-43906309D01*
X47993566Y-43906343D01*
X47993570Y-43906356D01*
X48002410Y-44003488D01*
X47992213Y-44100491D01*
X47992212Y-44100496D01*
X47992207Y-44100539D01*
X47963351Y-44193758D01*
X47916938Y-44279596D01*
X47854736Y-44354785D01*
X47779115Y-44416461D01*
X47692954Y-44462273D01*
X47599536Y-44490478D01*
X47502419Y-44500000D01*
X47497549Y-44500000D01*
X47494983Y-44499982D01*
X47490600Y-44499951D01*
X47393625Y-44489074D01*
X47300610Y-44459568D01*
X47215097Y-44412557D01*
X47140345Y-44349832D01*
X47079199Y-44273782D01*
X47033989Y-44187303D01*
X47006437Y-44093691D01*
X47006434Y-44093657D01*
X47006430Y-44093644D01*
X46997590Y-43996512D01*
X47007787Y-43899509D01*
X47007788Y-43899504D01*
X47007793Y-43899461D01*
X47036649Y-43806242D01*
X47083062Y-43720404D01*
X47145264Y-43645215D01*
X47220885Y-43583539D01*
X47307046Y-43537727D01*
X47400464Y-43509522D01*
X47497581Y-43500000D01*
X47502451Y-43500000D01*
X47505017Y-43500018D01*
X47505017Y-43500018D01*
G37*
G36*
X48755017Y-43500018D02*
X48759400Y-43500049D01*
X48856375Y-43510926D01*
X48949390Y-43540432D01*
X49034903Y-43587443D01*
X49109655Y-43650168D01*
X49170801Y-43726218D01*
X49216011Y-43812697D01*
X49243563Y-43906309D01*
X49243566Y-43906343D01*
X49243570Y-43906356D01*
X49252410Y-44003488D01*
X49242213Y-44100491D01*
X49242212Y-44100496D01*
X49242207Y-44100539D01*
X49213351Y-44193758D01*
X49166938Y-44279596D01*
X49104736Y-44354785D01*
X49029115Y-44416461D01*
X48942954Y-44462273D01*
X48849536Y-44490478D01*
X48752419Y-44500000D01*
X48747549Y-44500000D01*
X48744983Y-44499982D01*
X48740600Y-44499951D01*
X48643625Y-44489074D01*
X48550610Y-44459568D01*
X48465097Y-44412557D01*
X48390345Y-44349832D01*
X48329199Y-44273782D01*
X48283989Y-44187303D01*
X48256437Y-44093691D01*
X48256434Y-44093657D01*
X48256430Y-44093644D01*
X48247590Y-43996512D01*
X48257787Y-43899509D01*
X48257788Y-43899504D01*
X48257793Y-43899461D01*
X48286649Y-43806242D01*
X48333062Y-43720404D01*
X48395264Y-43645215D01*
X48470885Y-43583539D01*
X48557046Y-43537727D01*
X48650464Y-43509522D01*
X48747581Y-43500000D01*
X48752451Y-43500000D01*
X48755017Y-43500018D01*
X48755017Y-43500018D01*
G37*
G36*
X50005017Y-43500018D02*
X50009400Y-43500049D01*
X50106375Y-43510926D01*
X50199390Y-43540432D01*
X50284903Y-43587443D01*
X50359655Y-43650168D01*
X50420801Y-43726218D01*
X50466011Y-43812697D01*
X50493563Y-43906309D01*
X50493566Y-43906343D01*
X50493570Y-43906356D01*
X50502410Y-44003488D01*
X50492213Y-44100491D01*
X50492212Y-44100496D01*
X50492207Y-44100539D01*
X50463351Y-44193758D01*
X50416938Y-44279596D01*
X50354736Y-44354785D01*
X50279115Y-44416461D01*
X50192954Y-44462273D01*
X50099536Y-44490478D01*
X50002419Y-44500000D01*
X49997549Y-44500000D01*
X49994983Y-44499982D01*
X49990600Y-44499951D01*
X49893625Y-44489074D01*
X49800610Y-44459568D01*
X49715097Y-44412557D01*
X49640345Y-44349832D01*
X49579199Y-44273782D01*
X49533989Y-44187303D01*
X49506437Y-44093691D01*
X49506434Y-44093657D01*
X49506430Y-44093644D01*
X49497590Y-43996512D01*
X49507787Y-43899509D01*
X49507788Y-43899504D01*
X49507793Y-43899461D01*
X49536649Y-43806242D01*
X49583062Y-43720404D01*
X49645264Y-43645215D01*
X49720885Y-43583539D01*
X49807046Y-43537727D01*
X49900464Y-43509522D01*
X49997581Y-43500000D01*
X50002451Y-43500000D01*
X50005017Y-43500018D01*
X50005017Y-43500018D01*
G37*
G36*
X51255017Y-43500018D02*
X51259400Y-43500049D01*
X51356375Y-43510926D01*
X51449390Y-43540432D01*
X51534903Y-43587443D01*
X51609655Y-43650168D01*
X51670801Y-43726218D01*
X51716011Y-43812697D01*
X51743563Y-43906309D01*
X51743566Y-43906343D01*
X51743570Y-43906356D01*
X51752410Y-44003488D01*
X51742213Y-44100491D01*
X51742212Y-44100496D01*
X51742207Y-44100539D01*
X51713351Y-44193758D01*
X51666938Y-44279596D01*
X51604736Y-44354785D01*
X51529115Y-44416461D01*
X51442954Y-44462273D01*
X51349536Y-44490478D01*
X51252419Y-44500000D01*
X51247549Y-44500000D01*
X51244983Y-44499982D01*
X51240600Y-44499951D01*
X51143625Y-44489074D01*
X51050610Y-44459568D01*
X50965097Y-44412557D01*
X50890345Y-44349832D01*
X50829199Y-44273782D01*
X50783989Y-44187303D01*
X50756437Y-44093691D01*
X50756434Y-44093657D01*
X50756430Y-44093644D01*
X50747590Y-43996512D01*
X50757787Y-43899509D01*
X50757788Y-43899504D01*
X50757793Y-43899461D01*
X50786649Y-43806242D01*
X50833062Y-43720404D01*
X50895264Y-43645215D01*
X50970885Y-43583539D01*
X51057046Y-43537727D01*
X51150464Y-43509522D01*
X51247581Y-43500000D01*
X51252451Y-43500000D01*
X51255017Y-43500018D01*
X51255017Y-43500018D01*
G37*
G36*
X52505017Y-43500018D02*
X52509400Y-43500049D01*
X52606375Y-43510926D01*
X52699390Y-43540432D01*
X52784903Y-43587443D01*
X52859655Y-43650168D01*
X52920801Y-43726218D01*
X52966011Y-43812697D01*
X52993563Y-43906309D01*
X52993566Y-43906343D01*
X52993570Y-43906356D01*
X53002410Y-44003488D01*
X52992213Y-44100491D01*
X52992212Y-44100496D01*
X52992207Y-44100539D01*
X52963351Y-44193758D01*
X52916938Y-44279596D01*
X52854736Y-44354785D01*
X52779115Y-44416461D01*
X52692954Y-44462273D01*
X52599536Y-44490478D01*
X52502419Y-44500000D01*
X52497549Y-44500000D01*
X52494983Y-44499982D01*
X52490600Y-44499951D01*
X52393625Y-44489074D01*
X52300610Y-44459568D01*
X52215097Y-44412557D01*
X52140345Y-44349832D01*
X52079199Y-44273782D01*
X52033989Y-44187303D01*
X52006437Y-44093691D01*
X52006434Y-44093657D01*
X52006430Y-44093644D01*
X51997590Y-43996512D01*
X52007787Y-43899509D01*
X52007788Y-43899504D01*
X52007793Y-43899461D01*
X52036649Y-43806242D01*
X52083062Y-43720404D01*
X52145264Y-43645215D01*
X52220885Y-43583539D01*
X52307046Y-43537727D01*
X52400464Y-43509522D01*
X52497581Y-43500000D01*
X52502451Y-43500000D01*
X52505017Y-43500018D01*
X52505017Y-43500018D01*
G37*
M02*
