G04 #@! TF.FileFunction,Copper,L1,Top,Signal*
%FSLAX46Y46*%
G04 Gerber Fmt 4.6, Leading zero omitted, Abs format (unit mm)*
G04 Created by KiCad (PCBNEW 4.0.1-stable) date 2016 September 01, Thursday 02:04:04*
%MOMM*%
G01*
G04 APERTURE LIST*
%ADD10C,0.100000*%
%ADD11R,0.600000X0.400000*%
%ADD12R,1.200000X0.800000*%
%ADD13R,1.300000X0.800000*%
%ADD14R,0.800000X0.750000*%
%ADD15R,0.500000X0.600000*%
%ADD16C,4.400000*%
%ADD17R,0.600000X0.500000*%
%ADD18R,1.600000X0.800000*%
%ADD19R,3.000000X2.100000*%
%ADD20R,0.700000X0.250000*%
%ADD21R,0.250000X0.700000*%
%ADD22R,1.725000X1.725000*%
%ADD23R,0.830000X1.190000*%
%ADD24R,1.150000X1.400000*%
%ADD25R,0.800000X0.800000*%
%ADD26O,0.800000X0.800000*%
%ADD27C,0.600000*%
%ADD28C,0.250000*%
%ADD29C,0.300000*%
%ADD30C,0.160000*%
%ADD31C,0.400000*%
G04 APERTURE END LIST*
D10*
D11*
X49500000Y-54550000D03*
X49500000Y-53650000D03*
D12*
X47875000Y-55750000D03*
X47875000Y-53850000D03*
D13*
X45325000Y-54800000D03*
D14*
X45550000Y-57000000D03*
X47050000Y-57000000D03*
D15*
X55600000Y-55850000D03*
X55600000Y-56950000D03*
D16*
X59000000Y-44000000D03*
X41000000Y-44000000D03*
D14*
X46950000Y-52600000D03*
X45450000Y-52600000D03*
D17*
X53950000Y-53700000D03*
X52850000Y-53700000D03*
X46850000Y-51400000D03*
X45750000Y-51400000D03*
D15*
X44300000Y-48250000D03*
X44300000Y-49350000D03*
D18*
X56500000Y-50725000D03*
X56500000Y-51975000D03*
X56500000Y-53225000D03*
X56500000Y-54475000D03*
D19*
X59400000Y-57025000D03*
X59400000Y-48175000D03*
D18*
X43500000Y-54475000D03*
X43500000Y-53225000D03*
X43500000Y-51975000D03*
X43500000Y-50725000D03*
D19*
X40600000Y-48175000D03*
X40600000Y-57025000D03*
D11*
X50500000Y-54550000D03*
X50500000Y-53650000D03*
X50000000Y-57150000D03*
X50000000Y-56250000D03*
D20*
X48900000Y-48450000D03*
X48900000Y-48950000D03*
X48900000Y-49450000D03*
X48900000Y-49950000D03*
X48900000Y-50450000D03*
X48900000Y-50950000D03*
X48900000Y-51450000D03*
X48900000Y-51950000D03*
D21*
X49550000Y-52600000D03*
X50050000Y-52600000D03*
X50550000Y-52600000D03*
X51050000Y-52600000D03*
X51550000Y-52600000D03*
X52050000Y-52600000D03*
X52550000Y-52600000D03*
X53050000Y-52600000D03*
D20*
X53700000Y-51950000D03*
X53700000Y-51450000D03*
X53700000Y-50950000D03*
X53700000Y-50450000D03*
X53700000Y-49950000D03*
X53700000Y-49450000D03*
X53700000Y-48950000D03*
X53700000Y-48450000D03*
D21*
X53050000Y-47800000D03*
X52550000Y-47800000D03*
X52050000Y-47800000D03*
X51550000Y-47800000D03*
X51050000Y-47800000D03*
X50550000Y-47800000D03*
X50050000Y-47800000D03*
X49550000Y-47800000D03*
D22*
X52162500Y-51062500D03*
X52162500Y-49337500D03*
X50437500Y-51062500D03*
X50437500Y-49337500D03*
D20*
X54485000Y-56755000D03*
X54485000Y-56255000D03*
X54485000Y-55755000D03*
X54485000Y-55255000D03*
X51685000Y-55255000D03*
X51685000Y-55755000D03*
X51685000Y-56255000D03*
X51685000Y-56755000D03*
D23*
X52670000Y-55410000D03*
X52670000Y-56600000D03*
X53500000Y-55410000D03*
X53500000Y-56600000D03*
D24*
X45500000Y-50100000D03*
X45500000Y-47900000D03*
X47100000Y-47900000D03*
X47100000Y-50100000D03*
D25*
X53750000Y-44000000D03*
D26*
X52500000Y-44000000D03*
X51250000Y-44000000D03*
X50000000Y-44000000D03*
X48750000Y-44000000D03*
X47500000Y-44000000D03*
X46250000Y-44000000D03*
D27*
X48600000Y-47800000D03*
X47100000Y-53285000D03*
X54300000Y-52300000D03*
X54919989Y-54585286D03*
X46600000Y-55375000D03*
X50000000Y-50800000D03*
X50000000Y-49200000D03*
X59400000Y-52600000D03*
X40600000Y-52600000D03*
X44600000Y-51975000D03*
X55540010Y-53208126D03*
X53318842Y-54618842D03*
X48200000Y-49900000D03*
X57600000Y-50800000D03*
X50900000Y-55908082D03*
X42400000Y-54500000D03*
X58300000Y-52000000D03*
X50874998Y-56700000D03*
X42400000Y-53200000D03*
X49300000Y-55600000D03*
X50159157Y-55059157D03*
X51769989Y-53408833D03*
X54599979Y-51260001D03*
X54599979Y-50500000D03*
X49100000Y-52600000D03*
D28*
X48900000Y-48450000D02*
X48900000Y-48100000D01*
X48900000Y-48100000D02*
X48600000Y-47800000D01*
X48900000Y-50450000D02*
X48476796Y-50450000D01*
X47600000Y-51326796D02*
X47600000Y-51975000D01*
X48476796Y-50450000D02*
X47600000Y-51326796D01*
X47600000Y-51975000D02*
X46975000Y-52600000D01*
X46975000Y-52600000D02*
X46950000Y-52600000D01*
X53700000Y-51950000D02*
X53950000Y-51950000D01*
X53950000Y-51950000D02*
X54300000Y-52300000D01*
D29*
X53950000Y-53700000D02*
X53950000Y-52650000D01*
X53950000Y-52650000D02*
X54300000Y-52300000D01*
D28*
X54485000Y-55755000D02*
X55505000Y-55755000D01*
X55505000Y-55755000D02*
X55600000Y-55850000D01*
D29*
X47100000Y-53285000D02*
X47100000Y-52750000D01*
X47100000Y-52750000D02*
X46950000Y-52600000D01*
X47875000Y-53850000D02*
X47665000Y-53850000D01*
X47665000Y-53850000D02*
X47100000Y-53285000D01*
D30*
X54485000Y-55755000D02*
X54995000Y-55755000D01*
X54995000Y-55755000D02*
X55075001Y-55674999D01*
X55075001Y-55674999D02*
X55075001Y-54740298D01*
X55075001Y-54740298D02*
X54919989Y-54585286D01*
D29*
X45375000Y-51975000D02*
X45725000Y-51975000D01*
X45725000Y-51975000D02*
X45750000Y-51950000D01*
X45750000Y-51950000D02*
X45750000Y-51400000D01*
D28*
X44300000Y-49350000D02*
X44750000Y-49350000D01*
X44750000Y-49350000D02*
X45500000Y-50100000D01*
X47100000Y-47900000D02*
X47925000Y-47900000D01*
X47925000Y-47900000D02*
X48000000Y-47825000D01*
X48000000Y-47825000D02*
X48000000Y-47534198D01*
X48319199Y-47214999D02*
X48880801Y-47214999D01*
X48000000Y-47534198D02*
X48319199Y-47214999D01*
X48880801Y-47214999D02*
X49465802Y-47800000D01*
X49465802Y-47800000D02*
X49550000Y-47800000D01*
D29*
X46975000Y-55750000D02*
X46600000Y-55375000D01*
X47875000Y-55750000D02*
X46975000Y-55750000D01*
D31*
X59400000Y-53300000D02*
X59400000Y-57025000D01*
X59325000Y-53225000D02*
X56500000Y-53225000D01*
X59400000Y-52600000D02*
X59400000Y-53300000D01*
X59400000Y-53300000D02*
X59325000Y-53225000D01*
X59400000Y-48175000D02*
X59400000Y-52600000D01*
X40600000Y-52600000D02*
X40600000Y-57025000D01*
X40600000Y-48175000D02*
X40600000Y-52600000D01*
D29*
X45750000Y-51400000D02*
X45750000Y-50350000D01*
X45750000Y-50350000D02*
X45500000Y-50100000D01*
X44600000Y-51975000D02*
X45375000Y-51975000D01*
D31*
X43500000Y-51975000D02*
X44600000Y-51975000D01*
X56500000Y-53225000D02*
X55556884Y-53225000D01*
X55556884Y-53225000D02*
X55540010Y-53208126D01*
D28*
X55600000Y-56950000D02*
X55384999Y-57165001D01*
X55384999Y-57165001D02*
X53900001Y-57165001D01*
X53900001Y-57165001D02*
X53335000Y-56600000D01*
X53335000Y-56600000D02*
X52670000Y-56600000D01*
X48900000Y-50950000D02*
X50325000Y-50950000D01*
X50325000Y-50950000D02*
X50437500Y-51062500D01*
X50050000Y-47800000D02*
X49550000Y-47800000D01*
X50050000Y-47800000D02*
X50050000Y-48950000D01*
X50050000Y-48950000D02*
X50437500Y-49337500D01*
X49550000Y-47800000D02*
X49550000Y-48450000D01*
X49550000Y-48450000D02*
X50437500Y-49337500D01*
X53050000Y-52600000D02*
X53050000Y-51950000D01*
X53050000Y-51950000D02*
X52162500Y-51062500D01*
X54485000Y-56255000D02*
X53845000Y-56255000D01*
X53845000Y-56255000D02*
X53500000Y-56600000D01*
D30*
X53318842Y-54618842D02*
X53318842Y-55228842D01*
X53318842Y-55228842D02*
X53500000Y-55410000D01*
X52850000Y-53700000D02*
X52850000Y-55230000D01*
X52850000Y-55230000D02*
X52670000Y-55410000D01*
X47875000Y-55750000D02*
X47875000Y-55190000D01*
X47875000Y-55190000D02*
X48715001Y-54349999D01*
X48715001Y-54349999D02*
X48715001Y-53257999D01*
X48715001Y-53257999D02*
X48309999Y-52852997D01*
X48309999Y-52852997D02*
X48309999Y-51132999D01*
X48309999Y-51132999D02*
X48492998Y-50950000D01*
X48492998Y-50950000D02*
X48900000Y-50950000D01*
X53050000Y-52600000D02*
X53050000Y-53500000D01*
X53050000Y-53500000D02*
X52850000Y-53700000D01*
D29*
X47050000Y-57000000D02*
X47700000Y-57000000D01*
X47875000Y-55750000D02*
X47875000Y-56825000D01*
X47875000Y-56825000D02*
X47700000Y-57000000D01*
X45375000Y-51975000D02*
X45450000Y-52050000D01*
X45450000Y-52050000D02*
X45450000Y-52600000D01*
X46600000Y-55375000D02*
X46600000Y-54425000D01*
X46600000Y-54425000D02*
X45450000Y-53275000D01*
X45450000Y-53275000D02*
X45450000Y-52600000D01*
D30*
X48900000Y-49950000D02*
X48250000Y-49950000D01*
X48250000Y-49950000D02*
X48200000Y-49900000D01*
D31*
X44725000Y-55400000D02*
X42300000Y-55400000D01*
X42300000Y-55400000D02*
X41600000Y-54700000D01*
X41600000Y-54700000D02*
X41600000Y-51425000D01*
X41600000Y-51425000D02*
X42300000Y-50725000D01*
X42300000Y-50725000D02*
X43500000Y-50725000D01*
X44725000Y-55400000D02*
X45325000Y-54800000D01*
X45550000Y-57000000D02*
X45550000Y-56225000D01*
X45550000Y-56225000D02*
X44725000Y-55400000D01*
X56500000Y-54475000D02*
X56900000Y-54875000D01*
X56900000Y-54875000D02*
X56900000Y-56848002D01*
X56900000Y-56848002D02*
X55973002Y-57775000D01*
X55973002Y-57775000D02*
X46325000Y-57775000D01*
X46325000Y-57775000D02*
X45550000Y-57000000D01*
D29*
X45550000Y-57000000D02*
X45550000Y-56325000D01*
D30*
X48900000Y-49450000D02*
X48549202Y-49450000D01*
X48459201Y-49359999D02*
X47840001Y-49359999D01*
X48549202Y-49450000D02*
X48459201Y-49359999D01*
X47840001Y-49359999D02*
X47100000Y-50100000D01*
X46850000Y-51400000D02*
X46850000Y-50350000D01*
X46850000Y-50350000D02*
X47100000Y-50100000D01*
X44300000Y-48250000D02*
X45150000Y-48250000D01*
X45150000Y-48250000D02*
X45500000Y-47900000D01*
X48900000Y-48950000D02*
X46425000Y-48950000D01*
X46425000Y-48950000D02*
X45500000Y-48025000D01*
X45500000Y-48025000D02*
X45500000Y-47900000D01*
X53700000Y-48950000D02*
X54210000Y-48950000D01*
X54210000Y-48950000D02*
X54500000Y-48660000D01*
X54500000Y-48660000D02*
X54500000Y-47700000D01*
X54500000Y-47700000D02*
X51800000Y-45000000D01*
X51000000Y-45000000D02*
X50000000Y-44000000D01*
X51800000Y-45000000D02*
X51000000Y-45000000D01*
X53700000Y-48450000D02*
X53700000Y-47542998D01*
X53700000Y-47542998D02*
X51657002Y-45500000D01*
X50250000Y-45500000D02*
X50100000Y-45350000D01*
X51657002Y-45500000D02*
X50250000Y-45500000D01*
X50100000Y-45350000D02*
X48750000Y-44000000D01*
X52550000Y-47800000D02*
X52550000Y-47050000D01*
X52550000Y-47050000D02*
X51470010Y-45970010D01*
X51470010Y-45970010D02*
X49470010Y-45970010D01*
X49470010Y-45970010D02*
X47500000Y-44000000D01*
X46250000Y-44000000D02*
X46552798Y-44000000D01*
X46552798Y-44000000D02*
X48952798Y-46400000D01*
X48952798Y-46400000D02*
X51160000Y-46400000D01*
X51160000Y-46400000D02*
X52050000Y-47290000D01*
X52050000Y-47290000D02*
X52050000Y-47800000D01*
D29*
X56500000Y-50725000D02*
X57525000Y-50725000D01*
X57525000Y-50725000D02*
X57600000Y-50800000D01*
D30*
X51685000Y-55755000D02*
X51053082Y-55755000D01*
X51053082Y-55755000D02*
X50900000Y-55908082D01*
X43500000Y-54475000D02*
X42425000Y-54475000D01*
X42425000Y-54475000D02*
X42400000Y-54500000D01*
D29*
X56500000Y-51975000D02*
X58275000Y-51975000D01*
X58275000Y-51975000D02*
X58300000Y-52000000D01*
D30*
X51685000Y-56255000D02*
X51319998Y-56255000D01*
X51319998Y-56255000D02*
X50874998Y-56700000D01*
X43500000Y-53225000D02*
X42425000Y-53225000D01*
X42425000Y-53225000D02*
X42400000Y-53200000D01*
X49500000Y-54550000D02*
X49500000Y-55400000D01*
X49500000Y-55400000D02*
X49300000Y-55600000D01*
X50159157Y-55059157D02*
X50159157Y-54890843D01*
X50159157Y-54890843D02*
X50500000Y-54550000D01*
X51550000Y-52600000D02*
X51550000Y-53188844D01*
X51550000Y-53188844D02*
X51769989Y-53408833D01*
X53700000Y-50950000D02*
X54289978Y-50950000D01*
X54289978Y-50950000D02*
X54599979Y-51260001D01*
X54549979Y-50450000D02*
X54599979Y-50500000D01*
X53700000Y-50450000D02*
X54549979Y-50450000D01*
X50050000Y-52600000D02*
X50050000Y-53100000D01*
X50050000Y-53100000D02*
X49500000Y-53650000D01*
X50550000Y-52600000D02*
X50550000Y-53600000D01*
X50550000Y-53600000D02*
X50500000Y-53650000D01*
X50000000Y-57150000D02*
X50525796Y-57150000D01*
X50525796Y-57150000D02*
X50615797Y-57240001D01*
X50615797Y-57240001D02*
X51484999Y-57240001D01*
X51484999Y-57240001D02*
X51685000Y-57040000D01*
X51685000Y-57040000D02*
X51685000Y-56755000D01*
X50000000Y-56250000D02*
X50000000Y-56017516D01*
X52309990Y-53707526D02*
X52309990Y-53350010D01*
X50000000Y-56017516D02*
X52309990Y-53707526D01*
X52309990Y-53350010D02*
X52550000Y-53110000D01*
X52550000Y-53110000D02*
X52550000Y-52600000D01*
X49550000Y-52600000D02*
X49100000Y-52600000D01*
X55139980Y-52360020D02*
X54600000Y-52900000D01*
X54600000Y-52900000D02*
X54600000Y-54106073D01*
X54600000Y-54106073D02*
X54379988Y-54326085D01*
X54379988Y-54326085D02*
X54379988Y-54864988D01*
X54379988Y-54864988D02*
X54485000Y-54970000D01*
X54485000Y-54970000D02*
X54485000Y-55255000D01*
X55139980Y-50239980D02*
X54850000Y-49950000D01*
X55139980Y-52360020D02*
X55139980Y-50239980D01*
X54850000Y-49950000D02*
X53700000Y-49950000D01*
X54485000Y-56755000D02*
X54812998Y-56755000D01*
X55459999Y-53927317D02*
X54920010Y-53387328D01*
X55459999Y-52492563D02*
X55459999Y-49959999D01*
X55459999Y-49959999D02*
X54950000Y-49450000D01*
X54812998Y-56755000D02*
X55177997Y-56390001D01*
X56090001Y-56342001D02*
X56090001Y-55357999D01*
X54920010Y-53032552D02*
X55459999Y-52492563D01*
X55177997Y-56390001D02*
X56042001Y-56390001D01*
X56042001Y-56390001D02*
X56090001Y-56342001D01*
X56090001Y-55357999D02*
X55847003Y-55115001D01*
X55847003Y-55115001D02*
X55507999Y-55115001D01*
X55507999Y-55115001D02*
X55459999Y-55067001D01*
X55459999Y-55067001D02*
X55459999Y-53927317D01*
X54920010Y-53387328D02*
X54920010Y-53032552D01*
X54950000Y-49450000D02*
X53700000Y-49450000D01*
G36*
X57640957Y-41916215D02*
X57594917Y-41946978D01*
X57333496Y-42234501D01*
X59000000Y-43901005D01*
X59014142Y-43886863D01*
X59113137Y-43985858D01*
X59098995Y-44000000D01*
X60765499Y-45666504D01*
X61053022Y-45405083D01*
X61090000Y-45318547D01*
X61090000Y-46975589D01*
X61035949Y-46921538D01*
X60947739Y-46885000D01*
X59530000Y-46885000D01*
X59470000Y-46945000D01*
X59470000Y-48105000D01*
X59490000Y-48105000D01*
X59490000Y-48245000D01*
X59470000Y-48245000D01*
X59470000Y-49405000D01*
X59530000Y-49465000D01*
X60947739Y-49465000D01*
X61035949Y-49428462D01*
X61090000Y-49374411D01*
X61090000Y-55825589D01*
X61035949Y-55771538D01*
X60947739Y-55735000D01*
X59530000Y-55735000D01*
X59470000Y-55795000D01*
X59470000Y-56955000D01*
X59490000Y-56955000D01*
X59490000Y-57095000D01*
X59470000Y-57095000D01*
X59470000Y-57115000D01*
X59330000Y-57115000D01*
X59330000Y-57095000D01*
X57720000Y-57095000D01*
X57660000Y-57155000D01*
X57660000Y-58090000D01*
X56308540Y-58090000D01*
X57225269Y-57173271D01*
X57324985Y-57024037D01*
X57360000Y-56848002D01*
X57360000Y-55927261D01*
X57660000Y-55927261D01*
X57660000Y-56895000D01*
X57720000Y-56955000D01*
X59330000Y-56955000D01*
X59330000Y-55795000D01*
X59270000Y-55735000D01*
X57852261Y-55735000D01*
X57764051Y-55771538D01*
X57696538Y-55839051D01*
X57660000Y-55927261D01*
X57360000Y-55927261D01*
X57360000Y-55128804D01*
X57396350Y-55121964D01*
X57484842Y-55065021D01*
X57544207Y-54978136D01*
X57565093Y-54875000D01*
X57565093Y-54075000D01*
X57546964Y-53978650D01*
X57490021Y-53890158D01*
X57413397Y-53837804D01*
X57435949Y-53828462D01*
X57503462Y-53760949D01*
X57540000Y-53672739D01*
X57540000Y-53355000D01*
X57480000Y-53295000D01*
X56570000Y-53295000D01*
X56570000Y-53315000D01*
X56430000Y-53315000D01*
X56430000Y-53295000D01*
X55520000Y-53295000D01*
X55460000Y-53355000D01*
X55460000Y-53446486D01*
X55260010Y-53246496D01*
X55260010Y-53173384D01*
X55460000Y-52973394D01*
X55460000Y-53095000D01*
X55520000Y-53155000D01*
X56430000Y-53155000D01*
X56430000Y-53135000D01*
X56570000Y-53135000D01*
X56570000Y-53155000D01*
X57480000Y-53155000D01*
X57540000Y-53095000D01*
X57540000Y-52777261D01*
X57503462Y-52689051D01*
X57435949Y-52621538D01*
X57412261Y-52611726D01*
X57484842Y-52565021D01*
X57544207Y-52478136D01*
X57563068Y-52385000D01*
X57893059Y-52385000D01*
X57982371Y-52474468D01*
X58188120Y-52559903D01*
X58410902Y-52560097D01*
X58616800Y-52475022D01*
X58774468Y-52317629D01*
X58859903Y-52111880D01*
X58860097Y-51889098D01*
X58775022Y-51683200D01*
X58617629Y-51525532D01*
X58411880Y-51440097D01*
X58189098Y-51439903D01*
X57983200Y-51524978D01*
X57943108Y-51565000D01*
X57563211Y-51565000D01*
X57546964Y-51478650D01*
X57490021Y-51390158D01*
X57430876Y-51349747D01*
X57443735Y-51341473D01*
X57488120Y-51359903D01*
X57710902Y-51360097D01*
X57916800Y-51275022D01*
X58074468Y-51117629D01*
X58159903Y-50911880D01*
X58160097Y-50689098D01*
X58075022Y-50483200D01*
X57917629Y-50325532D01*
X57711880Y-50240097D01*
X57549091Y-50239955D01*
X57546964Y-50228650D01*
X57490021Y-50140158D01*
X57403136Y-50080793D01*
X57300000Y-50059907D01*
X55799999Y-50059907D01*
X55799999Y-49959999D01*
X55774118Y-49829887D01*
X55766982Y-49819207D01*
X55700416Y-49719583D01*
X55190416Y-49209584D01*
X55080113Y-49135881D01*
X54950000Y-49110000D01*
X54530832Y-49110000D01*
X54740416Y-48900416D01*
X54814119Y-48790113D01*
X54840000Y-48660000D01*
X54840000Y-48305000D01*
X57660000Y-48305000D01*
X57660000Y-49272739D01*
X57696538Y-49360949D01*
X57764051Y-49428462D01*
X57852261Y-49465000D01*
X59270000Y-49465000D01*
X59330000Y-49405000D01*
X59330000Y-48245000D01*
X57720000Y-48245000D01*
X57660000Y-48305000D01*
X54840000Y-48305000D01*
X54840000Y-47700000D01*
X54814119Y-47569888D01*
X54785973Y-47527764D01*
X54740417Y-47459584D01*
X54358094Y-47077261D01*
X57660000Y-47077261D01*
X57660000Y-48045000D01*
X57720000Y-48105000D01*
X59330000Y-48105000D01*
X59330000Y-46945000D01*
X59270000Y-46885000D01*
X57852261Y-46885000D01*
X57764051Y-46921538D01*
X57696538Y-46989051D01*
X57660000Y-47077261D01*
X54358094Y-47077261D01*
X53046332Y-45765499D01*
X57333496Y-45765499D01*
X57594917Y-46053022D01*
X58487530Y-46434447D01*
X59458162Y-46445249D01*
X60359043Y-46083785D01*
X60405083Y-46053022D01*
X60666504Y-45765499D01*
X59000000Y-44098995D01*
X57333496Y-45765499D01*
X53046332Y-45765499D01*
X52040416Y-44759584D01*
X51930113Y-44685881D01*
X51800000Y-44660000D01*
X51262930Y-44660000D01*
X51515501Y-44609760D01*
X51729620Y-44466690D01*
X51872690Y-44252571D01*
X51887189Y-44179681D01*
X51944180Y-44317301D01*
X52107915Y-44505851D01*
X52331342Y-44617390D01*
X52430000Y-44576173D01*
X52430000Y-44070000D01*
X52410000Y-44070000D01*
X52410000Y-43930000D01*
X52430000Y-43930000D01*
X52430000Y-43423827D01*
X52570000Y-43423827D01*
X52570000Y-43930000D01*
X52590000Y-43930000D01*
X52590000Y-44070000D01*
X52570000Y-44070000D01*
X52570000Y-44576173D01*
X52668658Y-44617390D01*
X52892085Y-44505851D01*
X53055820Y-44317301D01*
X53084907Y-44247063D01*
X53084907Y-44400000D01*
X53103036Y-44496350D01*
X53159979Y-44584842D01*
X53246864Y-44644207D01*
X53350000Y-44665093D01*
X54150000Y-44665093D01*
X54246350Y-44646964D01*
X54334842Y-44590021D01*
X54394207Y-44503136D01*
X54403314Y-44458162D01*
X56554751Y-44458162D01*
X56916215Y-45359043D01*
X56946978Y-45405083D01*
X57234501Y-45666504D01*
X58901005Y-44000000D01*
X57234501Y-42333496D01*
X56946978Y-42594917D01*
X56565553Y-43487530D01*
X56554751Y-44458162D01*
X54403314Y-44458162D01*
X54415093Y-44400000D01*
X54415093Y-43600000D01*
X54396964Y-43503650D01*
X54340021Y-43415158D01*
X54253136Y-43355793D01*
X54150000Y-43334907D01*
X53350000Y-43334907D01*
X53253650Y-43353036D01*
X53165158Y-43409979D01*
X53105793Y-43496864D01*
X53084907Y-43600000D01*
X53084907Y-43752937D01*
X53055820Y-43682699D01*
X52892085Y-43494149D01*
X52668658Y-43382610D01*
X52570000Y-43423827D01*
X52430000Y-43423827D01*
X52331342Y-43382610D01*
X52107915Y-43494149D01*
X51944180Y-43682699D01*
X51887189Y-43820319D01*
X51872690Y-43747429D01*
X51729620Y-43533310D01*
X51515501Y-43390240D01*
X51262930Y-43340000D01*
X51237070Y-43340000D01*
X50984499Y-43390240D01*
X50770380Y-43533310D01*
X50627310Y-43747429D01*
X50625000Y-43759042D01*
X50622690Y-43747429D01*
X50479620Y-43533310D01*
X50265501Y-43390240D01*
X50012930Y-43340000D01*
X49987070Y-43340000D01*
X49734499Y-43390240D01*
X49520380Y-43533310D01*
X49377310Y-43747429D01*
X49375000Y-43759042D01*
X49372690Y-43747429D01*
X49229620Y-43533310D01*
X49015501Y-43390240D01*
X48762930Y-43340000D01*
X48737070Y-43340000D01*
X48484499Y-43390240D01*
X48270380Y-43533310D01*
X48127310Y-43747429D01*
X48125000Y-43759042D01*
X48122690Y-43747429D01*
X47979620Y-43533310D01*
X47765501Y-43390240D01*
X47512930Y-43340000D01*
X47487070Y-43340000D01*
X47234499Y-43390240D01*
X47020380Y-43533310D01*
X46877310Y-43747429D01*
X46875000Y-43759042D01*
X46872690Y-43747429D01*
X46729620Y-43533310D01*
X46515501Y-43390240D01*
X46262930Y-43340000D01*
X46237070Y-43340000D01*
X45984499Y-43390240D01*
X45770380Y-43533310D01*
X45627310Y-43747429D01*
X45577070Y-44000000D01*
X45627310Y-44252571D01*
X45770380Y-44466690D01*
X45984499Y-44609760D01*
X46237070Y-44660000D01*
X46262930Y-44660000D01*
X46515501Y-44609760D01*
X46615145Y-44543180D01*
X48712382Y-46640417D01*
X48816521Y-46710000D01*
X48822686Y-46714119D01*
X48952798Y-46740000D01*
X51019168Y-46740000D01*
X51464075Y-47184907D01*
X51425000Y-47184907D01*
X51328650Y-47203036D01*
X51300558Y-47221113D01*
X51278136Y-47205793D01*
X51175000Y-47184907D01*
X50925000Y-47184907D01*
X50828650Y-47203036D01*
X50800558Y-47221113D01*
X50778136Y-47205793D01*
X50675000Y-47184907D01*
X50425000Y-47184907D01*
X50328650Y-47203036D01*
X50280589Y-47233962D01*
X50222739Y-47210000D01*
X50172500Y-47210000D01*
X50112500Y-47270000D01*
X50112500Y-47730000D01*
X50140000Y-47730000D01*
X50140000Y-47870000D01*
X50112500Y-47870000D01*
X50112500Y-47890000D01*
X49987500Y-47890000D01*
X49987500Y-47870000D01*
X49612500Y-47870000D01*
X49612500Y-47890000D01*
X49487500Y-47890000D01*
X49487500Y-47870000D01*
X49245000Y-47870000D01*
X49218299Y-47896701D01*
X49172236Y-47827764D01*
X49159987Y-47815515D01*
X49160097Y-47689098D01*
X49075022Y-47483200D01*
X48994225Y-47402261D01*
X49185000Y-47402261D01*
X49185000Y-47670000D01*
X49245000Y-47730000D01*
X49487500Y-47730000D01*
X49487500Y-47270000D01*
X49612500Y-47270000D01*
X49612500Y-47730000D01*
X49987500Y-47730000D01*
X49987500Y-47270000D01*
X49927500Y-47210000D01*
X49877261Y-47210000D01*
X49800000Y-47242003D01*
X49722739Y-47210000D01*
X49672500Y-47210000D01*
X49612500Y-47270000D01*
X49487500Y-47270000D01*
X49427500Y-47210000D01*
X49377261Y-47210000D01*
X49289051Y-47246538D01*
X49221538Y-47314051D01*
X49185000Y-47402261D01*
X48994225Y-47402261D01*
X48917629Y-47325532D01*
X48711880Y-47240097D01*
X48489098Y-47239903D01*
X48283200Y-47324978D01*
X48125532Y-47482371D01*
X48040097Y-47688120D01*
X48039903Y-47910902D01*
X48124978Y-48116800D01*
X48282371Y-48274468D01*
X48294150Y-48279359D01*
X48284907Y-48325000D01*
X48284907Y-48575000D01*
X48291493Y-48610000D01*
X47915000Y-48610000D01*
X47915000Y-48030000D01*
X47855000Y-47970000D01*
X47170000Y-47970000D01*
X47170000Y-47990000D01*
X47030000Y-47990000D01*
X47030000Y-47970000D01*
X47010000Y-47970000D01*
X47010000Y-47830000D01*
X47030000Y-47830000D01*
X47030000Y-47020000D01*
X47170000Y-47020000D01*
X47170000Y-47830000D01*
X47855000Y-47830000D01*
X47915000Y-47770000D01*
X47915000Y-47152261D01*
X47878462Y-47064051D01*
X47810949Y-46996538D01*
X47722739Y-46960000D01*
X47230000Y-46960000D01*
X47170000Y-47020000D01*
X47030000Y-47020000D01*
X46970000Y-46960000D01*
X46477261Y-46960000D01*
X46389051Y-46996538D01*
X46321538Y-47064051D01*
X46311726Y-47087739D01*
X46265021Y-47015158D01*
X46178136Y-46955793D01*
X46075000Y-46934907D01*
X44925000Y-46934907D01*
X44828650Y-46953036D01*
X44740158Y-47009979D01*
X44680793Y-47096864D01*
X44659907Y-47200000D01*
X44659907Y-47710419D01*
X44653136Y-47705793D01*
X44550000Y-47684907D01*
X44050000Y-47684907D01*
X43953650Y-47703036D01*
X43865158Y-47759979D01*
X43805793Y-47846864D01*
X43784907Y-47950000D01*
X43784907Y-48550000D01*
X43803036Y-48646350D01*
X43859979Y-48734842D01*
X43946864Y-48794207D01*
X44024851Y-48810000D01*
X44002261Y-48810000D01*
X43914051Y-48846538D01*
X43846538Y-48914051D01*
X43810000Y-49002261D01*
X43810000Y-49220000D01*
X43870000Y-49280000D01*
X44230000Y-49280000D01*
X44230000Y-49260000D01*
X44370000Y-49260000D01*
X44370000Y-49280000D01*
X44390000Y-49280000D01*
X44390000Y-49420000D01*
X44370000Y-49420000D01*
X44370000Y-49830000D01*
X44430000Y-49890000D01*
X44597739Y-49890000D01*
X44685000Y-49853855D01*
X44685000Y-49970000D01*
X44745000Y-50030000D01*
X45430000Y-50030000D01*
X45430000Y-49220000D01*
X45370000Y-49160000D01*
X44877261Y-49160000D01*
X44790000Y-49196145D01*
X44790000Y-49002261D01*
X44753462Y-48914051D01*
X44685949Y-48846538D01*
X44597739Y-48810000D01*
X44577068Y-48810000D01*
X44646350Y-48796964D01*
X44714543Y-48753083D01*
X44734979Y-48784842D01*
X44821864Y-48844207D01*
X44925000Y-48865093D01*
X45859260Y-48865093D01*
X46176390Y-49182223D01*
X46122739Y-49160000D01*
X45630000Y-49160000D01*
X45570000Y-49220000D01*
X45570000Y-50030000D01*
X45590000Y-50030000D01*
X45590000Y-50170000D01*
X45570000Y-50170000D01*
X45570000Y-50190000D01*
X45430000Y-50190000D01*
X45430000Y-50170000D01*
X44745000Y-50170000D01*
X44685000Y-50230000D01*
X44685000Y-50847739D01*
X44721538Y-50935949D01*
X44789051Y-51003462D01*
X44877261Y-51040000D01*
X45235790Y-51040000D01*
X45210000Y-51102261D01*
X45210000Y-51270000D01*
X45270000Y-51330000D01*
X45680000Y-51330000D01*
X45680000Y-51310000D01*
X45820000Y-51310000D01*
X45820000Y-51330000D01*
X45840000Y-51330000D01*
X45840000Y-51470000D01*
X45820000Y-51470000D01*
X45820000Y-51830000D01*
X45880000Y-51890000D01*
X46097739Y-51890000D01*
X46185949Y-51853462D01*
X46253462Y-51785949D01*
X46290000Y-51697739D01*
X46290000Y-51677068D01*
X46303036Y-51746350D01*
X46359979Y-51834842D01*
X46446864Y-51894207D01*
X46550000Y-51915093D01*
X47115435Y-51915093D01*
X47070621Y-51959907D01*
X46550000Y-51959907D01*
X46453650Y-51978036D01*
X46365158Y-52034979D01*
X46305793Y-52121864D01*
X46284907Y-52225000D01*
X46284907Y-52975000D01*
X46303036Y-53071350D01*
X46359979Y-53159842D01*
X46446864Y-53219207D01*
X46540040Y-53238076D01*
X46539903Y-53395902D01*
X46624978Y-53601800D01*
X46782371Y-53759468D01*
X46988120Y-53844903D01*
X47009907Y-53844922D01*
X47009907Y-54250000D01*
X47028036Y-54346350D01*
X47084979Y-54434842D01*
X47171864Y-54494207D01*
X47275000Y-54515093D01*
X48475000Y-54515093D01*
X48571350Y-54496964D01*
X48659842Y-54440021D01*
X48719207Y-54353136D01*
X48740093Y-54250000D01*
X48740093Y-53450000D01*
X48721964Y-53353650D01*
X48665021Y-53265158D01*
X48578136Y-53205793D01*
X48475000Y-53184907D01*
X47660088Y-53184907D01*
X47660097Y-53174098D01*
X47602837Y-53035519D01*
X47615093Y-52975000D01*
X47615093Y-52504379D01*
X47872236Y-52247236D01*
X47887094Y-52225000D01*
X47955694Y-52122333D01*
X47985000Y-51975000D01*
X47985000Y-51486268D01*
X48321285Y-51149983D01*
X48333975Y-51180618D01*
X48305793Y-51221864D01*
X48284907Y-51325000D01*
X48284907Y-51575000D01*
X48303036Y-51671350D01*
X48321113Y-51699442D01*
X48305793Y-51721864D01*
X48284907Y-51825000D01*
X48284907Y-52075000D01*
X48303036Y-52171350D01*
X48359979Y-52259842D01*
X48446864Y-52319207D01*
X48550000Y-52340093D01*
X48601564Y-52340093D01*
X48540097Y-52488120D01*
X48539903Y-52710902D01*
X48624978Y-52916800D01*
X48782371Y-53074468D01*
X48988120Y-53159903D01*
X49210902Y-53160097D01*
X49248939Y-53144380D01*
X49308253Y-53184907D01*
X49200000Y-53184907D01*
X49103650Y-53203036D01*
X49015158Y-53259979D01*
X48955793Y-53346864D01*
X48934907Y-53450000D01*
X48934907Y-53850000D01*
X48953036Y-53946350D01*
X49009979Y-54034842D01*
X49096864Y-54094207D01*
X49122732Y-54099446D01*
X49103650Y-54103036D01*
X49015158Y-54159979D01*
X48955793Y-54246864D01*
X48934907Y-54350000D01*
X48934907Y-54750000D01*
X48953036Y-54846350D01*
X49009979Y-54934842D01*
X49096864Y-54994207D01*
X49160000Y-55006993D01*
X49160000Y-55051926D01*
X48983200Y-55124978D01*
X48825532Y-55282371D01*
X48740097Y-55488120D01*
X48739903Y-55710902D01*
X48824978Y-55916800D01*
X48982371Y-56074468D01*
X49188120Y-56159903D01*
X49410902Y-56160097D01*
X49434907Y-56150178D01*
X49434907Y-56450000D01*
X49453036Y-56546350D01*
X49509979Y-56634842D01*
X49596864Y-56694207D01*
X49622732Y-56699446D01*
X49603650Y-56703036D01*
X49515158Y-56759979D01*
X49455793Y-56846864D01*
X49434907Y-56950000D01*
X49434907Y-57315000D01*
X47690000Y-57315000D01*
X47690000Y-57130000D01*
X47630000Y-57070000D01*
X47120000Y-57070000D01*
X47120000Y-57090000D01*
X46980000Y-57090000D01*
X46980000Y-57070000D01*
X46470000Y-57070000D01*
X46410000Y-57130000D01*
X46410000Y-57209462D01*
X46215093Y-57014555D01*
X46215093Y-56625000D01*
X46206111Y-56577261D01*
X46410000Y-56577261D01*
X46410000Y-56870000D01*
X46470000Y-56930000D01*
X46980000Y-56930000D01*
X46980000Y-56445000D01*
X46920000Y-56385000D01*
X46602261Y-56385000D01*
X46514051Y-56421538D01*
X46446538Y-56489051D01*
X46410000Y-56577261D01*
X46206111Y-56577261D01*
X46196964Y-56528650D01*
X46140021Y-56440158D01*
X46053136Y-56380793D01*
X46010000Y-56372058D01*
X46010000Y-56225000D01*
X45974985Y-56048966D01*
X45875269Y-55899731D01*
X45855538Y-55880000D01*
X47035000Y-55880000D01*
X47035000Y-56197739D01*
X47071538Y-56285949D01*
X47139051Y-56353462D01*
X47215190Y-56385000D01*
X47180000Y-56385000D01*
X47120000Y-56445000D01*
X47120000Y-56930000D01*
X47630000Y-56930000D01*
X47690000Y-56870000D01*
X47690000Y-56577261D01*
X47653462Y-56489051D01*
X47585949Y-56421538D01*
X47509810Y-56390000D01*
X47745000Y-56390000D01*
X47805000Y-56330000D01*
X47805000Y-55820000D01*
X47945000Y-55820000D01*
X47945000Y-56330000D01*
X48005000Y-56390000D01*
X48522739Y-56390000D01*
X48610949Y-56353462D01*
X48678462Y-56285949D01*
X48715000Y-56197739D01*
X48715000Y-55880000D01*
X48655000Y-55820000D01*
X47945000Y-55820000D01*
X47805000Y-55820000D01*
X47095000Y-55820000D01*
X47035000Y-55880000D01*
X45855538Y-55880000D01*
X45440631Y-55465093D01*
X45975000Y-55465093D01*
X46071350Y-55446964D01*
X46159842Y-55390021D01*
X46219207Y-55303136D01*
X46219384Y-55302261D01*
X47035000Y-55302261D01*
X47035000Y-55620000D01*
X47095000Y-55680000D01*
X47805000Y-55680000D01*
X47805000Y-55170000D01*
X47945000Y-55170000D01*
X47945000Y-55680000D01*
X48655000Y-55680000D01*
X48715000Y-55620000D01*
X48715000Y-55302261D01*
X48678462Y-55214051D01*
X48610949Y-55146538D01*
X48522739Y-55110000D01*
X48005000Y-55110000D01*
X47945000Y-55170000D01*
X47805000Y-55170000D01*
X47745000Y-55110000D01*
X47227261Y-55110000D01*
X47139051Y-55146538D01*
X47071538Y-55214051D01*
X47035000Y-55302261D01*
X46219384Y-55302261D01*
X46240093Y-55200000D01*
X46240093Y-54400000D01*
X46221964Y-54303650D01*
X46165021Y-54215158D01*
X46078136Y-54155793D01*
X45975000Y-54134907D01*
X44675000Y-54134907D01*
X44578650Y-54153036D01*
X44565093Y-54161760D01*
X44565093Y-54075000D01*
X44546964Y-53978650D01*
X44490021Y-53890158D01*
X44430876Y-53849747D01*
X44484842Y-53815021D01*
X44544207Y-53728136D01*
X44565093Y-53625000D01*
X44565093Y-52825000D01*
X44547219Y-52730000D01*
X44810000Y-52730000D01*
X44810000Y-53022739D01*
X44846538Y-53110949D01*
X44914051Y-53178462D01*
X45002261Y-53215000D01*
X45320000Y-53215000D01*
X45380000Y-53155000D01*
X45380000Y-52670000D01*
X45520000Y-52670000D01*
X45520000Y-53155000D01*
X45580000Y-53215000D01*
X45897739Y-53215000D01*
X45985949Y-53178462D01*
X46053462Y-53110949D01*
X46090000Y-53022739D01*
X46090000Y-52730000D01*
X46030000Y-52670000D01*
X45520000Y-52670000D01*
X45380000Y-52670000D01*
X44870000Y-52670000D01*
X44810000Y-52730000D01*
X44547219Y-52730000D01*
X44546964Y-52728650D01*
X44490021Y-52640158D01*
X44413397Y-52587804D01*
X44435949Y-52578462D01*
X44503462Y-52510949D01*
X44540000Y-52422739D01*
X44540000Y-52177261D01*
X44810000Y-52177261D01*
X44810000Y-52470000D01*
X44870000Y-52530000D01*
X45380000Y-52530000D01*
X45380000Y-52045000D01*
X45520000Y-52045000D01*
X45520000Y-52530000D01*
X46030000Y-52530000D01*
X46090000Y-52470000D01*
X46090000Y-52177261D01*
X46053462Y-52089051D01*
X45985949Y-52021538D01*
X45897739Y-51985000D01*
X45580000Y-51985000D01*
X45520000Y-52045000D01*
X45380000Y-52045000D01*
X45320000Y-51985000D01*
X45002261Y-51985000D01*
X44914051Y-52021538D01*
X44846538Y-52089051D01*
X44810000Y-52177261D01*
X44540000Y-52177261D01*
X44540000Y-52105000D01*
X44480000Y-52045000D01*
X43570000Y-52045000D01*
X43570000Y-52065000D01*
X43430000Y-52065000D01*
X43430000Y-52045000D01*
X42520000Y-52045000D01*
X42460000Y-52105000D01*
X42460000Y-52422739D01*
X42496538Y-52510949D01*
X42564051Y-52578462D01*
X42587739Y-52588274D01*
X42515158Y-52634979D01*
X42511661Y-52640097D01*
X42289098Y-52639903D01*
X42083200Y-52724978D01*
X42060000Y-52748138D01*
X42060000Y-51615538D01*
X42453487Y-51222051D01*
X42509979Y-51309842D01*
X42586603Y-51362196D01*
X42564051Y-51371538D01*
X42496538Y-51439051D01*
X42460000Y-51527261D01*
X42460000Y-51845000D01*
X42520000Y-51905000D01*
X43430000Y-51905000D01*
X43430000Y-51885000D01*
X43570000Y-51885000D01*
X43570000Y-51905000D01*
X44480000Y-51905000D01*
X44540000Y-51845000D01*
X44540000Y-51530000D01*
X45210000Y-51530000D01*
X45210000Y-51697739D01*
X45246538Y-51785949D01*
X45314051Y-51853462D01*
X45402261Y-51890000D01*
X45620000Y-51890000D01*
X45680000Y-51830000D01*
X45680000Y-51470000D01*
X45270000Y-51470000D01*
X45210000Y-51530000D01*
X44540000Y-51530000D01*
X44540000Y-51527261D01*
X44503462Y-51439051D01*
X44435949Y-51371538D01*
X44412261Y-51361726D01*
X44484842Y-51315021D01*
X44544207Y-51228136D01*
X44565093Y-51125000D01*
X44565093Y-50325000D01*
X44546964Y-50228650D01*
X44490021Y-50140158D01*
X44403136Y-50080793D01*
X44300000Y-50059907D01*
X42700000Y-50059907D01*
X42603650Y-50078036D01*
X42515158Y-50134979D01*
X42455793Y-50221864D01*
X42447058Y-50265000D01*
X42300000Y-50265000D01*
X42123966Y-50300015D01*
X41992108Y-50388120D01*
X41974731Y-50399731D01*
X41274731Y-51099731D01*
X41175015Y-51248965D01*
X41172820Y-51260001D01*
X41140000Y-51425000D01*
X41140000Y-54700000D01*
X41175015Y-54876035D01*
X41274731Y-55025269D01*
X41974731Y-55725269D01*
X41989294Y-55735000D01*
X40730000Y-55735000D01*
X40670000Y-55795000D01*
X40670000Y-56955000D01*
X42280000Y-56955000D01*
X42340000Y-56895000D01*
X42340000Y-55927261D01*
X42312139Y-55860000D01*
X44534462Y-55860000D01*
X45052949Y-56378487D01*
X44965158Y-56434979D01*
X44905793Y-56521864D01*
X44884907Y-56625000D01*
X44884907Y-57375000D01*
X44903036Y-57471350D01*
X44959979Y-57559842D01*
X45046864Y-57619207D01*
X45150000Y-57640093D01*
X45539555Y-57640093D01*
X45989462Y-58090000D01*
X42340000Y-58090000D01*
X42340000Y-57155000D01*
X42280000Y-57095000D01*
X40670000Y-57095000D01*
X40670000Y-57115000D01*
X40530000Y-57115000D01*
X40530000Y-57095000D01*
X40510000Y-57095000D01*
X40510000Y-56955000D01*
X40530000Y-56955000D01*
X40530000Y-55795000D01*
X40470000Y-55735000D01*
X39052261Y-55735000D01*
X38964051Y-55771538D01*
X38910000Y-55825589D01*
X38910000Y-49480000D01*
X43810000Y-49480000D01*
X43810000Y-49697739D01*
X43846538Y-49785949D01*
X43914051Y-49853462D01*
X44002261Y-49890000D01*
X44170000Y-49890000D01*
X44230000Y-49830000D01*
X44230000Y-49420000D01*
X43870000Y-49420000D01*
X43810000Y-49480000D01*
X38910000Y-49480000D01*
X38910000Y-49374411D01*
X38964051Y-49428462D01*
X39052261Y-49465000D01*
X40470000Y-49465000D01*
X40530000Y-49405000D01*
X40530000Y-48245000D01*
X40670000Y-48245000D01*
X40670000Y-49405000D01*
X40730000Y-49465000D01*
X42147739Y-49465000D01*
X42235949Y-49428462D01*
X42303462Y-49360949D01*
X42340000Y-49272739D01*
X42340000Y-48305000D01*
X42280000Y-48245000D01*
X40670000Y-48245000D01*
X40530000Y-48245000D01*
X40510000Y-48245000D01*
X40510000Y-48105000D01*
X40530000Y-48105000D01*
X40530000Y-46945000D01*
X40670000Y-46945000D01*
X40670000Y-48105000D01*
X42280000Y-48105000D01*
X42340000Y-48045000D01*
X42340000Y-47077261D01*
X42303462Y-46989051D01*
X42235949Y-46921538D01*
X42147739Y-46885000D01*
X40730000Y-46885000D01*
X40670000Y-46945000D01*
X40530000Y-46945000D01*
X40470000Y-46885000D01*
X39052261Y-46885000D01*
X38964051Y-46921538D01*
X38910000Y-46975589D01*
X38910000Y-45765499D01*
X39333496Y-45765499D01*
X39594917Y-46053022D01*
X40487530Y-46434447D01*
X41458162Y-46445249D01*
X42359043Y-46083785D01*
X42405083Y-46053022D01*
X42666504Y-45765499D01*
X41000000Y-44098995D01*
X39333496Y-45765499D01*
X38910000Y-45765499D01*
X38910000Y-45343553D01*
X38916215Y-45359043D01*
X38946978Y-45405083D01*
X39234501Y-45666504D01*
X40901005Y-44000000D01*
X41098995Y-44000000D01*
X42765499Y-45666504D01*
X43053022Y-45405083D01*
X43434447Y-44512470D01*
X43445249Y-43541838D01*
X43083785Y-42640957D01*
X43053022Y-42594917D01*
X42765499Y-42333496D01*
X41098995Y-44000000D01*
X40901005Y-44000000D01*
X40886863Y-43985858D01*
X40985858Y-43886863D01*
X41000000Y-43901005D01*
X42666504Y-42234501D01*
X42405083Y-41946978D01*
X42318547Y-41910000D01*
X57656447Y-41910000D01*
X57640957Y-41916215D01*
X57640957Y-41916215D01*
G37*
X57640957Y-41916215D02*
X57594917Y-41946978D01*
X57333496Y-42234501D01*
X59000000Y-43901005D01*
X59014142Y-43886863D01*
X59113137Y-43985858D01*
X59098995Y-44000000D01*
X60765499Y-45666504D01*
X61053022Y-45405083D01*
X61090000Y-45318547D01*
X61090000Y-46975589D01*
X61035949Y-46921538D01*
X60947739Y-46885000D01*
X59530000Y-46885000D01*
X59470000Y-46945000D01*
X59470000Y-48105000D01*
X59490000Y-48105000D01*
X59490000Y-48245000D01*
X59470000Y-48245000D01*
X59470000Y-49405000D01*
X59530000Y-49465000D01*
X60947739Y-49465000D01*
X61035949Y-49428462D01*
X61090000Y-49374411D01*
X61090000Y-55825589D01*
X61035949Y-55771538D01*
X60947739Y-55735000D01*
X59530000Y-55735000D01*
X59470000Y-55795000D01*
X59470000Y-56955000D01*
X59490000Y-56955000D01*
X59490000Y-57095000D01*
X59470000Y-57095000D01*
X59470000Y-57115000D01*
X59330000Y-57115000D01*
X59330000Y-57095000D01*
X57720000Y-57095000D01*
X57660000Y-57155000D01*
X57660000Y-58090000D01*
X56308540Y-58090000D01*
X57225269Y-57173271D01*
X57324985Y-57024037D01*
X57360000Y-56848002D01*
X57360000Y-55927261D01*
X57660000Y-55927261D01*
X57660000Y-56895000D01*
X57720000Y-56955000D01*
X59330000Y-56955000D01*
X59330000Y-55795000D01*
X59270000Y-55735000D01*
X57852261Y-55735000D01*
X57764051Y-55771538D01*
X57696538Y-55839051D01*
X57660000Y-55927261D01*
X57360000Y-55927261D01*
X57360000Y-55128804D01*
X57396350Y-55121964D01*
X57484842Y-55065021D01*
X57544207Y-54978136D01*
X57565093Y-54875000D01*
X57565093Y-54075000D01*
X57546964Y-53978650D01*
X57490021Y-53890158D01*
X57413397Y-53837804D01*
X57435949Y-53828462D01*
X57503462Y-53760949D01*
X57540000Y-53672739D01*
X57540000Y-53355000D01*
X57480000Y-53295000D01*
X56570000Y-53295000D01*
X56570000Y-53315000D01*
X56430000Y-53315000D01*
X56430000Y-53295000D01*
X55520000Y-53295000D01*
X55460000Y-53355000D01*
X55460000Y-53446486D01*
X55260010Y-53246496D01*
X55260010Y-53173384D01*
X55460000Y-52973394D01*
X55460000Y-53095000D01*
X55520000Y-53155000D01*
X56430000Y-53155000D01*
X56430000Y-53135000D01*
X56570000Y-53135000D01*
X56570000Y-53155000D01*
X57480000Y-53155000D01*
X57540000Y-53095000D01*
X57540000Y-52777261D01*
X57503462Y-52689051D01*
X57435949Y-52621538D01*
X57412261Y-52611726D01*
X57484842Y-52565021D01*
X57544207Y-52478136D01*
X57563068Y-52385000D01*
X57893059Y-52385000D01*
X57982371Y-52474468D01*
X58188120Y-52559903D01*
X58410902Y-52560097D01*
X58616800Y-52475022D01*
X58774468Y-52317629D01*
X58859903Y-52111880D01*
X58860097Y-51889098D01*
X58775022Y-51683200D01*
X58617629Y-51525532D01*
X58411880Y-51440097D01*
X58189098Y-51439903D01*
X57983200Y-51524978D01*
X57943108Y-51565000D01*
X57563211Y-51565000D01*
X57546964Y-51478650D01*
X57490021Y-51390158D01*
X57430876Y-51349747D01*
X57443735Y-51341473D01*
X57488120Y-51359903D01*
X57710902Y-51360097D01*
X57916800Y-51275022D01*
X58074468Y-51117629D01*
X58159903Y-50911880D01*
X58160097Y-50689098D01*
X58075022Y-50483200D01*
X57917629Y-50325532D01*
X57711880Y-50240097D01*
X57549091Y-50239955D01*
X57546964Y-50228650D01*
X57490021Y-50140158D01*
X57403136Y-50080793D01*
X57300000Y-50059907D01*
X55799999Y-50059907D01*
X55799999Y-49959999D01*
X55774118Y-49829887D01*
X55766982Y-49819207D01*
X55700416Y-49719583D01*
X55190416Y-49209584D01*
X55080113Y-49135881D01*
X54950000Y-49110000D01*
X54530832Y-49110000D01*
X54740416Y-48900416D01*
X54814119Y-48790113D01*
X54840000Y-48660000D01*
X54840000Y-48305000D01*
X57660000Y-48305000D01*
X57660000Y-49272739D01*
X57696538Y-49360949D01*
X57764051Y-49428462D01*
X57852261Y-49465000D01*
X59270000Y-49465000D01*
X59330000Y-49405000D01*
X59330000Y-48245000D01*
X57720000Y-48245000D01*
X57660000Y-48305000D01*
X54840000Y-48305000D01*
X54840000Y-47700000D01*
X54814119Y-47569888D01*
X54785973Y-47527764D01*
X54740417Y-47459584D01*
X54358094Y-47077261D01*
X57660000Y-47077261D01*
X57660000Y-48045000D01*
X57720000Y-48105000D01*
X59330000Y-48105000D01*
X59330000Y-46945000D01*
X59270000Y-46885000D01*
X57852261Y-46885000D01*
X57764051Y-46921538D01*
X57696538Y-46989051D01*
X57660000Y-47077261D01*
X54358094Y-47077261D01*
X53046332Y-45765499D01*
X57333496Y-45765499D01*
X57594917Y-46053022D01*
X58487530Y-46434447D01*
X59458162Y-46445249D01*
X60359043Y-46083785D01*
X60405083Y-46053022D01*
X60666504Y-45765499D01*
X59000000Y-44098995D01*
X57333496Y-45765499D01*
X53046332Y-45765499D01*
X52040416Y-44759584D01*
X51930113Y-44685881D01*
X51800000Y-44660000D01*
X51262930Y-44660000D01*
X51515501Y-44609760D01*
X51729620Y-44466690D01*
X51872690Y-44252571D01*
X51887189Y-44179681D01*
X51944180Y-44317301D01*
X52107915Y-44505851D01*
X52331342Y-44617390D01*
X52430000Y-44576173D01*
X52430000Y-44070000D01*
X52410000Y-44070000D01*
X52410000Y-43930000D01*
X52430000Y-43930000D01*
X52430000Y-43423827D01*
X52570000Y-43423827D01*
X52570000Y-43930000D01*
X52590000Y-43930000D01*
X52590000Y-44070000D01*
X52570000Y-44070000D01*
X52570000Y-44576173D01*
X52668658Y-44617390D01*
X52892085Y-44505851D01*
X53055820Y-44317301D01*
X53084907Y-44247063D01*
X53084907Y-44400000D01*
X53103036Y-44496350D01*
X53159979Y-44584842D01*
X53246864Y-44644207D01*
X53350000Y-44665093D01*
X54150000Y-44665093D01*
X54246350Y-44646964D01*
X54334842Y-44590021D01*
X54394207Y-44503136D01*
X54403314Y-44458162D01*
X56554751Y-44458162D01*
X56916215Y-45359043D01*
X56946978Y-45405083D01*
X57234501Y-45666504D01*
X58901005Y-44000000D01*
X57234501Y-42333496D01*
X56946978Y-42594917D01*
X56565553Y-43487530D01*
X56554751Y-44458162D01*
X54403314Y-44458162D01*
X54415093Y-44400000D01*
X54415093Y-43600000D01*
X54396964Y-43503650D01*
X54340021Y-43415158D01*
X54253136Y-43355793D01*
X54150000Y-43334907D01*
X53350000Y-43334907D01*
X53253650Y-43353036D01*
X53165158Y-43409979D01*
X53105793Y-43496864D01*
X53084907Y-43600000D01*
X53084907Y-43752937D01*
X53055820Y-43682699D01*
X52892085Y-43494149D01*
X52668658Y-43382610D01*
X52570000Y-43423827D01*
X52430000Y-43423827D01*
X52331342Y-43382610D01*
X52107915Y-43494149D01*
X51944180Y-43682699D01*
X51887189Y-43820319D01*
X51872690Y-43747429D01*
X51729620Y-43533310D01*
X51515501Y-43390240D01*
X51262930Y-43340000D01*
X51237070Y-43340000D01*
X50984499Y-43390240D01*
X50770380Y-43533310D01*
X50627310Y-43747429D01*
X50625000Y-43759042D01*
X50622690Y-43747429D01*
X50479620Y-43533310D01*
X50265501Y-43390240D01*
X50012930Y-43340000D01*
X49987070Y-43340000D01*
X49734499Y-43390240D01*
X49520380Y-43533310D01*
X49377310Y-43747429D01*
X49375000Y-43759042D01*
X49372690Y-43747429D01*
X49229620Y-43533310D01*
X49015501Y-43390240D01*
X48762930Y-43340000D01*
X48737070Y-43340000D01*
X48484499Y-43390240D01*
X48270380Y-43533310D01*
X48127310Y-43747429D01*
X48125000Y-43759042D01*
X48122690Y-43747429D01*
X47979620Y-43533310D01*
X47765501Y-43390240D01*
X47512930Y-43340000D01*
X47487070Y-43340000D01*
X47234499Y-43390240D01*
X47020380Y-43533310D01*
X46877310Y-43747429D01*
X46875000Y-43759042D01*
X46872690Y-43747429D01*
X46729620Y-43533310D01*
X46515501Y-43390240D01*
X46262930Y-43340000D01*
X46237070Y-43340000D01*
X45984499Y-43390240D01*
X45770380Y-43533310D01*
X45627310Y-43747429D01*
X45577070Y-44000000D01*
X45627310Y-44252571D01*
X45770380Y-44466690D01*
X45984499Y-44609760D01*
X46237070Y-44660000D01*
X46262930Y-44660000D01*
X46515501Y-44609760D01*
X46615145Y-44543180D01*
X48712382Y-46640417D01*
X48816521Y-46710000D01*
X48822686Y-46714119D01*
X48952798Y-46740000D01*
X51019168Y-46740000D01*
X51464075Y-47184907D01*
X51425000Y-47184907D01*
X51328650Y-47203036D01*
X51300558Y-47221113D01*
X51278136Y-47205793D01*
X51175000Y-47184907D01*
X50925000Y-47184907D01*
X50828650Y-47203036D01*
X50800558Y-47221113D01*
X50778136Y-47205793D01*
X50675000Y-47184907D01*
X50425000Y-47184907D01*
X50328650Y-47203036D01*
X50280589Y-47233962D01*
X50222739Y-47210000D01*
X50172500Y-47210000D01*
X50112500Y-47270000D01*
X50112500Y-47730000D01*
X50140000Y-47730000D01*
X50140000Y-47870000D01*
X50112500Y-47870000D01*
X50112500Y-47890000D01*
X49987500Y-47890000D01*
X49987500Y-47870000D01*
X49612500Y-47870000D01*
X49612500Y-47890000D01*
X49487500Y-47890000D01*
X49487500Y-47870000D01*
X49245000Y-47870000D01*
X49218299Y-47896701D01*
X49172236Y-47827764D01*
X49159987Y-47815515D01*
X49160097Y-47689098D01*
X49075022Y-47483200D01*
X48994225Y-47402261D01*
X49185000Y-47402261D01*
X49185000Y-47670000D01*
X49245000Y-47730000D01*
X49487500Y-47730000D01*
X49487500Y-47270000D01*
X49612500Y-47270000D01*
X49612500Y-47730000D01*
X49987500Y-47730000D01*
X49987500Y-47270000D01*
X49927500Y-47210000D01*
X49877261Y-47210000D01*
X49800000Y-47242003D01*
X49722739Y-47210000D01*
X49672500Y-47210000D01*
X49612500Y-47270000D01*
X49487500Y-47270000D01*
X49427500Y-47210000D01*
X49377261Y-47210000D01*
X49289051Y-47246538D01*
X49221538Y-47314051D01*
X49185000Y-47402261D01*
X48994225Y-47402261D01*
X48917629Y-47325532D01*
X48711880Y-47240097D01*
X48489098Y-47239903D01*
X48283200Y-47324978D01*
X48125532Y-47482371D01*
X48040097Y-47688120D01*
X48039903Y-47910902D01*
X48124978Y-48116800D01*
X48282371Y-48274468D01*
X48294150Y-48279359D01*
X48284907Y-48325000D01*
X48284907Y-48575000D01*
X48291493Y-48610000D01*
X47915000Y-48610000D01*
X47915000Y-48030000D01*
X47855000Y-47970000D01*
X47170000Y-47970000D01*
X47170000Y-47990000D01*
X47030000Y-47990000D01*
X47030000Y-47970000D01*
X47010000Y-47970000D01*
X47010000Y-47830000D01*
X47030000Y-47830000D01*
X47030000Y-47020000D01*
X47170000Y-47020000D01*
X47170000Y-47830000D01*
X47855000Y-47830000D01*
X47915000Y-47770000D01*
X47915000Y-47152261D01*
X47878462Y-47064051D01*
X47810949Y-46996538D01*
X47722739Y-46960000D01*
X47230000Y-46960000D01*
X47170000Y-47020000D01*
X47030000Y-47020000D01*
X46970000Y-46960000D01*
X46477261Y-46960000D01*
X46389051Y-46996538D01*
X46321538Y-47064051D01*
X46311726Y-47087739D01*
X46265021Y-47015158D01*
X46178136Y-46955793D01*
X46075000Y-46934907D01*
X44925000Y-46934907D01*
X44828650Y-46953036D01*
X44740158Y-47009979D01*
X44680793Y-47096864D01*
X44659907Y-47200000D01*
X44659907Y-47710419D01*
X44653136Y-47705793D01*
X44550000Y-47684907D01*
X44050000Y-47684907D01*
X43953650Y-47703036D01*
X43865158Y-47759979D01*
X43805793Y-47846864D01*
X43784907Y-47950000D01*
X43784907Y-48550000D01*
X43803036Y-48646350D01*
X43859979Y-48734842D01*
X43946864Y-48794207D01*
X44024851Y-48810000D01*
X44002261Y-48810000D01*
X43914051Y-48846538D01*
X43846538Y-48914051D01*
X43810000Y-49002261D01*
X43810000Y-49220000D01*
X43870000Y-49280000D01*
X44230000Y-49280000D01*
X44230000Y-49260000D01*
X44370000Y-49260000D01*
X44370000Y-49280000D01*
X44390000Y-49280000D01*
X44390000Y-49420000D01*
X44370000Y-49420000D01*
X44370000Y-49830000D01*
X44430000Y-49890000D01*
X44597739Y-49890000D01*
X44685000Y-49853855D01*
X44685000Y-49970000D01*
X44745000Y-50030000D01*
X45430000Y-50030000D01*
X45430000Y-49220000D01*
X45370000Y-49160000D01*
X44877261Y-49160000D01*
X44790000Y-49196145D01*
X44790000Y-49002261D01*
X44753462Y-48914051D01*
X44685949Y-48846538D01*
X44597739Y-48810000D01*
X44577068Y-48810000D01*
X44646350Y-48796964D01*
X44714543Y-48753083D01*
X44734979Y-48784842D01*
X44821864Y-48844207D01*
X44925000Y-48865093D01*
X45859260Y-48865093D01*
X46176390Y-49182223D01*
X46122739Y-49160000D01*
X45630000Y-49160000D01*
X45570000Y-49220000D01*
X45570000Y-50030000D01*
X45590000Y-50030000D01*
X45590000Y-50170000D01*
X45570000Y-50170000D01*
X45570000Y-50190000D01*
X45430000Y-50190000D01*
X45430000Y-50170000D01*
X44745000Y-50170000D01*
X44685000Y-50230000D01*
X44685000Y-50847739D01*
X44721538Y-50935949D01*
X44789051Y-51003462D01*
X44877261Y-51040000D01*
X45235790Y-51040000D01*
X45210000Y-51102261D01*
X45210000Y-51270000D01*
X45270000Y-51330000D01*
X45680000Y-51330000D01*
X45680000Y-51310000D01*
X45820000Y-51310000D01*
X45820000Y-51330000D01*
X45840000Y-51330000D01*
X45840000Y-51470000D01*
X45820000Y-51470000D01*
X45820000Y-51830000D01*
X45880000Y-51890000D01*
X46097739Y-51890000D01*
X46185949Y-51853462D01*
X46253462Y-51785949D01*
X46290000Y-51697739D01*
X46290000Y-51677068D01*
X46303036Y-51746350D01*
X46359979Y-51834842D01*
X46446864Y-51894207D01*
X46550000Y-51915093D01*
X47115435Y-51915093D01*
X47070621Y-51959907D01*
X46550000Y-51959907D01*
X46453650Y-51978036D01*
X46365158Y-52034979D01*
X46305793Y-52121864D01*
X46284907Y-52225000D01*
X46284907Y-52975000D01*
X46303036Y-53071350D01*
X46359979Y-53159842D01*
X46446864Y-53219207D01*
X46540040Y-53238076D01*
X46539903Y-53395902D01*
X46624978Y-53601800D01*
X46782371Y-53759468D01*
X46988120Y-53844903D01*
X47009907Y-53844922D01*
X47009907Y-54250000D01*
X47028036Y-54346350D01*
X47084979Y-54434842D01*
X47171864Y-54494207D01*
X47275000Y-54515093D01*
X48475000Y-54515093D01*
X48571350Y-54496964D01*
X48659842Y-54440021D01*
X48719207Y-54353136D01*
X48740093Y-54250000D01*
X48740093Y-53450000D01*
X48721964Y-53353650D01*
X48665021Y-53265158D01*
X48578136Y-53205793D01*
X48475000Y-53184907D01*
X47660088Y-53184907D01*
X47660097Y-53174098D01*
X47602837Y-53035519D01*
X47615093Y-52975000D01*
X47615093Y-52504379D01*
X47872236Y-52247236D01*
X47887094Y-52225000D01*
X47955694Y-52122333D01*
X47985000Y-51975000D01*
X47985000Y-51486268D01*
X48321285Y-51149983D01*
X48333975Y-51180618D01*
X48305793Y-51221864D01*
X48284907Y-51325000D01*
X48284907Y-51575000D01*
X48303036Y-51671350D01*
X48321113Y-51699442D01*
X48305793Y-51721864D01*
X48284907Y-51825000D01*
X48284907Y-52075000D01*
X48303036Y-52171350D01*
X48359979Y-52259842D01*
X48446864Y-52319207D01*
X48550000Y-52340093D01*
X48601564Y-52340093D01*
X48540097Y-52488120D01*
X48539903Y-52710902D01*
X48624978Y-52916800D01*
X48782371Y-53074468D01*
X48988120Y-53159903D01*
X49210902Y-53160097D01*
X49248939Y-53144380D01*
X49308253Y-53184907D01*
X49200000Y-53184907D01*
X49103650Y-53203036D01*
X49015158Y-53259979D01*
X48955793Y-53346864D01*
X48934907Y-53450000D01*
X48934907Y-53850000D01*
X48953036Y-53946350D01*
X49009979Y-54034842D01*
X49096864Y-54094207D01*
X49122732Y-54099446D01*
X49103650Y-54103036D01*
X49015158Y-54159979D01*
X48955793Y-54246864D01*
X48934907Y-54350000D01*
X48934907Y-54750000D01*
X48953036Y-54846350D01*
X49009979Y-54934842D01*
X49096864Y-54994207D01*
X49160000Y-55006993D01*
X49160000Y-55051926D01*
X48983200Y-55124978D01*
X48825532Y-55282371D01*
X48740097Y-55488120D01*
X48739903Y-55710902D01*
X48824978Y-55916800D01*
X48982371Y-56074468D01*
X49188120Y-56159903D01*
X49410902Y-56160097D01*
X49434907Y-56150178D01*
X49434907Y-56450000D01*
X49453036Y-56546350D01*
X49509979Y-56634842D01*
X49596864Y-56694207D01*
X49622732Y-56699446D01*
X49603650Y-56703036D01*
X49515158Y-56759979D01*
X49455793Y-56846864D01*
X49434907Y-56950000D01*
X49434907Y-57315000D01*
X47690000Y-57315000D01*
X47690000Y-57130000D01*
X47630000Y-57070000D01*
X47120000Y-57070000D01*
X47120000Y-57090000D01*
X46980000Y-57090000D01*
X46980000Y-57070000D01*
X46470000Y-57070000D01*
X46410000Y-57130000D01*
X46410000Y-57209462D01*
X46215093Y-57014555D01*
X46215093Y-56625000D01*
X46206111Y-56577261D01*
X46410000Y-56577261D01*
X46410000Y-56870000D01*
X46470000Y-56930000D01*
X46980000Y-56930000D01*
X46980000Y-56445000D01*
X46920000Y-56385000D01*
X46602261Y-56385000D01*
X46514051Y-56421538D01*
X46446538Y-56489051D01*
X46410000Y-56577261D01*
X46206111Y-56577261D01*
X46196964Y-56528650D01*
X46140021Y-56440158D01*
X46053136Y-56380793D01*
X46010000Y-56372058D01*
X46010000Y-56225000D01*
X45974985Y-56048966D01*
X45875269Y-55899731D01*
X45855538Y-55880000D01*
X47035000Y-55880000D01*
X47035000Y-56197739D01*
X47071538Y-56285949D01*
X47139051Y-56353462D01*
X47215190Y-56385000D01*
X47180000Y-56385000D01*
X47120000Y-56445000D01*
X47120000Y-56930000D01*
X47630000Y-56930000D01*
X47690000Y-56870000D01*
X47690000Y-56577261D01*
X47653462Y-56489051D01*
X47585949Y-56421538D01*
X47509810Y-56390000D01*
X47745000Y-56390000D01*
X47805000Y-56330000D01*
X47805000Y-55820000D01*
X47945000Y-55820000D01*
X47945000Y-56330000D01*
X48005000Y-56390000D01*
X48522739Y-56390000D01*
X48610949Y-56353462D01*
X48678462Y-56285949D01*
X48715000Y-56197739D01*
X48715000Y-55880000D01*
X48655000Y-55820000D01*
X47945000Y-55820000D01*
X47805000Y-55820000D01*
X47095000Y-55820000D01*
X47035000Y-55880000D01*
X45855538Y-55880000D01*
X45440631Y-55465093D01*
X45975000Y-55465093D01*
X46071350Y-55446964D01*
X46159842Y-55390021D01*
X46219207Y-55303136D01*
X46219384Y-55302261D01*
X47035000Y-55302261D01*
X47035000Y-55620000D01*
X47095000Y-55680000D01*
X47805000Y-55680000D01*
X47805000Y-55170000D01*
X47945000Y-55170000D01*
X47945000Y-55680000D01*
X48655000Y-55680000D01*
X48715000Y-55620000D01*
X48715000Y-55302261D01*
X48678462Y-55214051D01*
X48610949Y-55146538D01*
X48522739Y-55110000D01*
X48005000Y-55110000D01*
X47945000Y-55170000D01*
X47805000Y-55170000D01*
X47745000Y-55110000D01*
X47227261Y-55110000D01*
X47139051Y-55146538D01*
X47071538Y-55214051D01*
X47035000Y-55302261D01*
X46219384Y-55302261D01*
X46240093Y-55200000D01*
X46240093Y-54400000D01*
X46221964Y-54303650D01*
X46165021Y-54215158D01*
X46078136Y-54155793D01*
X45975000Y-54134907D01*
X44675000Y-54134907D01*
X44578650Y-54153036D01*
X44565093Y-54161760D01*
X44565093Y-54075000D01*
X44546964Y-53978650D01*
X44490021Y-53890158D01*
X44430876Y-53849747D01*
X44484842Y-53815021D01*
X44544207Y-53728136D01*
X44565093Y-53625000D01*
X44565093Y-52825000D01*
X44547219Y-52730000D01*
X44810000Y-52730000D01*
X44810000Y-53022739D01*
X44846538Y-53110949D01*
X44914051Y-53178462D01*
X45002261Y-53215000D01*
X45320000Y-53215000D01*
X45380000Y-53155000D01*
X45380000Y-52670000D01*
X45520000Y-52670000D01*
X45520000Y-53155000D01*
X45580000Y-53215000D01*
X45897739Y-53215000D01*
X45985949Y-53178462D01*
X46053462Y-53110949D01*
X46090000Y-53022739D01*
X46090000Y-52730000D01*
X46030000Y-52670000D01*
X45520000Y-52670000D01*
X45380000Y-52670000D01*
X44870000Y-52670000D01*
X44810000Y-52730000D01*
X44547219Y-52730000D01*
X44546964Y-52728650D01*
X44490021Y-52640158D01*
X44413397Y-52587804D01*
X44435949Y-52578462D01*
X44503462Y-52510949D01*
X44540000Y-52422739D01*
X44540000Y-52177261D01*
X44810000Y-52177261D01*
X44810000Y-52470000D01*
X44870000Y-52530000D01*
X45380000Y-52530000D01*
X45380000Y-52045000D01*
X45520000Y-52045000D01*
X45520000Y-52530000D01*
X46030000Y-52530000D01*
X46090000Y-52470000D01*
X46090000Y-52177261D01*
X46053462Y-52089051D01*
X45985949Y-52021538D01*
X45897739Y-51985000D01*
X45580000Y-51985000D01*
X45520000Y-52045000D01*
X45380000Y-52045000D01*
X45320000Y-51985000D01*
X45002261Y-51985000D01*
X44914051Y-52021538D01*
X44846538Y-52089051D01*
X44810000Y-52177261D01*
X44540000Y-52177261D01*
X44540000Y-52105000D01*
X44480000Y-52045000D01*
X43570000Y-52045000D01*
X43570000Y-52065000D01*
X43430000Y-52065000D01*
X43430000Y-52045000D01*
X42520000Y-52045000D01*
X42460000Y-52105000D01*
X42460000Y-52422739D01*
X42496538Y-52510949D01*
X42564051Y-52578462D01*
X42587739Y-52588274D01*
X42515158Y-52634979D01*
X42511661Y-52640097D01*
X42289098Y-52639903D01*
X42083200Y-52724978D01*
X42060000Y-52748138D01*
X42060000Y-51615538D01*
X42453487Y-51222051D01*
X42509979Y-51309842D01*
X42586603Y-51362196D01*
X42564051Y-51371538D01*
X42496538Y-51439051D01*
X42460000Y-51527261D01*
X42460000Y-51845000D01*
X42520000Y-51905000D01*
X43430000Y-51905000D01*
X43430000Y-51885000D01*
X43570000Y-51885000D01*
X43570000Y-51905000D01*
X44480000Y-51905000D01*
X44540000Y-51845000D01*
X44540000Y-51530000D01*
X45210000Y-51530000D01*
X45210000Y-51697739D01*
X45246538Y-51785949D01*
X45314051Y-51853462D01*
X45402261Y-51890000D01*
X45620000Y-51890000D01*
X45680000Y-51830000D01*
X45680000Y-51470000D01*
X45270000Y-51470000D01*
X45210000Y-51530000D01*
X44540000Y-51530000D01*
X44540000Y-51527261D01*
X44503462Y-51439051D01*
X44435949Y-51371538D01*
X44412261Y-51361726D01*
X44484842Y-51315021D01*
X44544207Y-51228136D01*
X44565093Y-51125000D01*
X44565093Y-50325000D01*
X44546964Y-50228650D01*
X44490021Y-50140158D01*
X44403136Y-50080793D01*
X44300000Y-50059907D01*
X42700000Y-50059907D01*
X42603650Y-50078036D01*
X42515158Y-50134979D01*
X42455793Y-50221864D01*
X42447058Y-50265000D01*
X42300000Y-50265000D01*
X42123966Y-50300015D01*
X41992108Y-50388120D01*
X41974731Y-50399731D01*
X41274731Y-51099731D01*
X41175015Y-51248965D01*
X41172820Y-51260001D01*
X41140000Y-51425000D01*
X41140000Y-54700000D01*
X41175015Y-54876035D01*
X41274731Y-55025269D01*
X41974731Y-55725269D01*
X41989294Y-55735000D01*
X40730000Y-55735000D01*
X40670000Y-55795000D01*
X40670000Y-56955000D01*
X42280000Y-56955000D01*
X42340000Y-56895000D01*
X42340000Y-55927261D01*
X42312139Y-55860000D01*
X44534462Y-55860000D01*
X45052949Y-56378487D01*
X44965158Y-56434979D01*
X44905793Y-56521864D01*
X44884907Y-56625000D01*
X44884907Y-57375000D01*
X44903036Y-57471350D01*
X44959979Y-57559842D01*
X45046864Y-57619207D01*
X45150000Y-57640093D01*
X45539555Y-57640093D01*
X45989462Y-58090000D01*
X42340000Y-58090000D01*
X42340000Y-57155000D01*
X42280000Y-57095000D01*
X40670000Y-57095000D01*
X40670000Y-57115000D01*
X40530000Y-57115000D01*
X40530000Y-57095000D01*
X40510000Y-57095000D01*
X40510000Y-56955000D01*
X40530000Y-56955000D01*
X40530000Y-55795000D01*
X40470000Y-55735000D01*
X39052261Y-55735000D01*
X38964051Y-55771538D01*
X38910000Y-55825589D01*
X38910000Y-49480000D01*
X43810000Y-49480000D01*
X43810000Y-49697739D01*
X43846538Y-49785949D01*
X43914051Y-49853462D01*
X44002261Y-49890000D01*
X44170000Y-49890000D01*
X44230000Y-49830000D01*
X44230000Y-49420000D01*
X43870000Y-49420000D01*
X43810000Y-49480000D01*
X38910000Y-49480000D01*
X38910000Y-49374411D01*
X38964051Y-49428462D01*
X39052261Y-49465000D01*
X40470000Y-49465000D01*
X40530000Y-49405000D01*
X40530000Y-48245000D01*
X40670000Y-48245000D01*
X40670000Y-49405000D01*
X40730000Y-49465000D01*
X42147739Y-49465000D01*
X42235949Y-49428462D01*
X42303462Y-49360949D01*
X42340000Y-49272739D01*
X42340000Y-48305000D01*
X42280000Y-48245000D01*
X40670000Y-48245000D01*
X40530000Y-48245000D01*
X40510000Y-48245000D01*
X40510000Y-48105000D01*
X40530000Y-48105000D01*
X40530000Y-46945000D01*
X40670000Y-46945000D01*
X40670000Y-48105000D01*
X42280000Y-48105000D01*
X42340000Y-48045000D01*
X42340000Y-47077261D01*
X42303462Y-46989051D01*
X42235949Y-46921538D01*
X42147739Y-46885000D01*
X40730000Y-46885000D01*
X40670000Y-46945000D01*
X40530000Y-46945000D01*
X40470000Y-46885000D01*
X39052261Y-46885000D01*
X38964051Y-46921538D01*
X38910000Y-46975589D01*
X38910000Y-45765499D01*
X39333496Y-45765499D01*
X39594917Y-46053022D01*
X40487530Y-46434447D01*
X41458162Y-46445249D01*
X42359043Y-46083785D01*
X42405083Y-46053022D01*
X42666504Y-45765499D01*
X41000000Y-44098995D01*
X39333496Y-45765499D01*
X38910000Y-45765499D01*
X38910000Y-45343553D01*
X38916215Y-45359043D01*
X38946978Y-45405083D01*
X39234501Y-45666504D01*
X40901005Y-44000000D01*
X41098995Y-44000000D01*
X42765499Y-45666504D01*
X43053022Y-45405083D01*
X43434447Y-44512470D01*
X43445249Y-43541838D01*
X43083785Y-42640957D01*
X43053022Y-42594917D01*
X42765499Y-42333496D01*
X41098995Y-44000000D01*
X40901005Y-44000000D01*
X40886863Y-43985858D01*
X40985858Y-43886863D01*
X41000000Y-43901005D01*
X42666504Y-42234501D01*
X42405083Y-41946978D01*
X42318547Y-41910000D01*
X57656447Y-41910000D01*
X57640957Y-41916215D01*
G36*
X56440000Y-56657464D02*
X56053732Y-57043732D01*
X56030000Y-57020000D01*
X55670000Y-57020000D01*
X55670000Y-57040000D01*
X55530000Y-57040000D01*
X55530000Y-57020000D01*
X55170000Y-57020000D01*
X55110000Y-57080000D01*
X55110000Y-57297739D01*
X55117150Y-57315000D01*
X54125068Y-57315000D01*
X54155000Y-57242739D01*
X54155000Y-57145093D01*
X54835000Y-57145093D01*
X54931350Y-57126964D01*
X55019842Y-57070021D01*
X55079207Y-56983136D01*
X55082638Y-56966192D01*
X55169415Y-56879415D01*
X55170000Y-56880000D01*
X55530000Y-56880000D01*
X55530000Y-56860000D01*
X55670000Y-56860000D01*
X55670000Y-56880000D01*
X56030000Y-56880000D01*
X56090000Y-56820000D01*
X56090000Y-56720453D01*
X56172114Y-56704120D01*
X56282417Y-56630417D01*
X56330417Y-56582417D01*
X56404120Y-56472114D01*
X56411506Y-56434979D01*
X56430001Y-56342001D01*
X56430001Y-55357999D01*
X56415305Y-55284118D01*
X56404120Y-55227886D01*
X56345458Y-55140093D01*
X56440000Y-55140093D01*
X56440000Y-56657464D01*
X56440000Y-56657464D01*
G37*
X56440000Y-56657464D02*
X56053732Y-57043732D01*
X56030000Y-57020000D01*
X55670000Y-57020000D01*
X55670000Y-57040000D01*
X55530000Y-57040000D01*
X55530000Y-57020000D01*
X55170000Y-57020000D01*
X55110000Y-57080000D01*
X55110000Y-57297739D01*
X55117150Y-57315000D01*
X54125068Y-57315000D01*
X54155000Y-57242739D01*
X54155000Y-57145093D01*
X54835000Y-57145093D01*
X54931350Y-57126964D01*
X55019842Y-57070021D01*
X55079207Y-56983136D01*
X55082638Y-56966192D01*
X55169415Y-56879415D01*
X55170000Y-56880000D01*
X55530000Y-56880000D01*
X55530000Y-56860000D01*
X55670000Y-56860000D01*
X55670000Y-56880000D01*
X56030000Y-56880000D01*
X56090000Y-56820000D01*
X56090000Y-56720453D01*
X56172114Y-56704120D01*
X56282417Y-56630417D01*
X56330417Y-56582417D01*
X56404120Y-56472114D01*
X56411506Y-56434979D01*
X56430001Y-56342001D01*
X56430001Y-55357999D01*
X56415305Y-55284118D01*
X56404120Y-55227886D01*
X56345458Y-55140093D01*
X56440000Y-55140093D01*
X56440000Y-56657464D01*
G36*
X52920000Y-53630000D02*
X52940000Y-53630000D01*
X52940000Y-53770000D01*
X52920000Y-53770000D01*
X52920000Y-54130000D01*
X52980000Y-54190000D01*
X53197739Y-54190000D01*
X53285949Y-54153462D01*
X53353462Y-54085949D01*
X53390000Y-53997739D01*
X53390000Y-53977068D01*
X53403036Y-54046350D01*
X53459979Y-54134842D01*
X53546864Y-54194207D01*
X53650000Y-54215093D01*
X54062066Y-54215093D01*
X54044451Y-54303650D01*
X54039988Y-54326085D01*
X54039988Y-54606998D01*
X53962739Y-54575000D01*
X53630000Y-54575000D01*
X53570000Y-54635000D01*
X53570000Y-55340000D01*
X53590000Y-55340000D01*
X53590000Y-55480000D01*
X53570000Y-55480000D01*
X53570000Y-56530000D01*
X53590000Y-56530000D01*
X53590000Y-56670000D01*
X53570000Y-56670000D01*
X53570000Y-56690000D01*
X53430000Y-56690000D01*
X53430000Y-56670000D01*
X52740000Y-56670000D01*
X52740000Y-56690000D01*
X52600000Y-56690000D01*
X52600000Y-56670000D01*
X52580000Y-56670000D01*
X52580000Y-56530000D01*
X52600000Y-56530000D01*
X52600000Y-55480000D01*
X52740000Y-55480000D01*
X52740000Y-56530000D01*
X53430000Y-56530000D01*
X53430000Y-55480000D01*
X52740000Y-55480000D01*
X52600000Y-55480000D01*
X52580000Y-55480000D01*
X52580000Y-55340000D01*
X52600000Y-55340000D01*
X52600000Y-54635000D01*
X52740000Y-54635000D01*
X52740000Y-55340000D01*
X53430000Y-55340000D01*
X53430000Y-54635000D01*
X53370000Y-54575000D01*
X52800000Y-54575000D01*
X52740000Y-54635000D01*
X52600000Y-54635000D01*
X52540000Y-54575000D01*
X52207261Y-54575000D01*
X52119051Y-54611538D01*
X52051538Y-54679051D01*
X52015000Y-54767261D01*
X52015000Y-54864907D01*
X51633441Y-54864907D01*
X52379469Y-54118880D01*
X52414051Y-54153462D01*
X52502261Y-54190000D01*
X52720000Y-54190000D01*
X52780000Y-54130000D01*
X52780000Y-53770000D01*
X52760000Y-53770000D01*
X52760000Y-53630000D01*
X52780000Y-53630000D01*
X52780000Y-53610000D01*
X52920000Y-53610000D01*
X52920000Y-53630000D01*
X52920000Y-53630000D01*
G37*
X52920000Y-53630000D02*
X52940000Y-53630000D01*
X52940000Y-53770000D01*
X52920000Y-53770000D01*
X52920000Y-54130000D01*
X52980000Y-54190000D01*
X53197739Y-54190000D01*
X53285949Y-54153462D01*
X53353462Y-54085949D01*
X53390000Y-53997739D01*
X53390000Y-53977068D01*
X53403036Y-54046350D01*
X53459979Y-54134842D01*
X53546864Y-54194207D01*
X53650000Y-54215093D01*
X54062066Y-54215093D01*
X54044451Y-54303650D01*
X54039988Y-54326085D01*
X54039988Y-54606998D01*
X53962739Y-54575000D01*
X53630000Y-54575000D01*
X53570000Y-54635000D01*
X53570000Y-55340000D01*
X53590000Y-55340000D01*
X53590000Y-55480000D01*
X53570000Y-55480000D01*
X53570000Y-56530000D01*
X53590000Y-56530000D01*
X53590000Y-56670000D01*
X53570000Y-56670000D01*
X53570000Y-56690000D01*
X53430000Y-56690000D01*
X53430000Y-56670000D01*
X52740000Y-56670000D01*
X52740000Y-56690000D01*
X52600000Y-56690000D01*
X52600000Y-56670000D01*
X52580000Y-56670000D01*
X52580000Y-56530000D01*
X52600000Y-56530000D01*
X52600000Y-55480000D01*
X52740000Y-55480000D01*
X52740000Y-56530000D01*
X53430000Y-56530000D01*
X53430000Y-55480000D01*
X52740000Y-55480000D01*
X52600000Y-55480000D01*
X52580000Y-55480000D01*
X52580000Y-55340000D01*
X52600000Y-55340000D01*
X52600000Y-54635000D01*
X52740000Y-54635000D01*
X52740000Y-55340000D01*
X53430000Y-55340000D01*
X53430000Y-54635000D01*
X53370000Y-54575000D01*
X52800000Y-54575000D01*
X52740000Y-54635000D01*
X52600000Y-54635000D01*
X52540000Y-54575000D01*
X52207261Y-54575000D01*
X52119051Y-54611538D01*
X52051538Y-54679051D01*
X52015000Y-54767261D01*
X52015000Y-54864907D01*
X51633441Y-54864907D01*
X52379469Y-54118880D01*
X52414051Y-54153462D01*
X52502261Y-54190000D01*
X52720000Y-54190000D01*
X52780000Y-54130000D01*
X52780000Y-53770000D01*
X52760000Y-53770000D01*
X52760000Y-53630000D01*
X52780000Y-53630000D01*
X52780000Y-53610000D01*
X52920000Y-53610000D01*
X52920000Y-53630000D01*
G36*
X54555000Y-56192500D02*
X54575000Y-56192500D01*
X54575000Y-56317500D01*
X54555000Y-56317500D01*
X54555000Y-56345000D01*
X54415000Y-56345000D01*
X54415000Y-56317500D01*
X54395000Y-56317500D01*
X54395000Y-56192500D01*
X54415000Y-56192500D01*
X54415000Y-56165000D01*
X54555000Y-56165000D01*
X54555000Y-56192500D01*
X54555000Y-56192500D01*
G37*
X54555000Y-56192500D02*
X54575000Y-56192500D01*
X54575000Y-56317500D01*
X54555000Y-56317500D01*
X54555000Y-56345000D01*
X54415000Y-56345000D01*
X54415000Y-56317500D01*
X54395000Y-56317500D01*
X54395000Y-56192500D01*
X54415000Y-56192500D01*
X54415000Y-56165000D01*
X54555000Y-56165000D01*
X54555000Y-56192500D01*
G36*
X53660086Y-52360086D02*
X53571209Y-52493099D01*
X53549859Y-52600436D01*
X53540000Y-52650000D01*
X53540000Y-53211820D01*
X53465158Y-53259979D01*
X53405793Y-53346864D01*
X53390000Y-53424851D01*
X53390000Y-53402261D01*
X53353462Y-53314051D01*
X53285949Y-53246538D01*
X53197739Y-53210000D01*
X52980000Y-53210000D01*
X52920002Y-53269998D01*
X52920002Y-53210000D01*
X52870109Y-53210000D01*
X52874329Y-53188785D01*
X52877261Y-53190000D01*
X52927500Y-53190000D01*
X52987500Y-53130000D01*
X52987500Y-52670000D01*
X53112500Y-52670000D01*
X53112500Y-53130000D01*
X53172500Y-53190000D01*
X53222739Y-53190000D01*
X53310949Y-53153462D01*
X53378462Y-53085949D01*
X53415000Y-52997739D01*
X53415000Y-52730000D01*
X53355000Y-52670000D01*
X53112500Y-52670000D01*
X52987500Y-52670000D01*
X52960000Y-52670000D01*
X52960000Y-52530000D01*
X52987500Y-52530000D01*
X52987500Y-52510000D01*
X53112500Y-52510000D01*
X53112500Y-52530000D01*
X53355000Y-52530000D01*
X53415000Y-52470000D01*
X53415000Y-52340093D01*
X53680079Y-52340093D01*
X53660086Y-52360086D01*
X53660086Y-52360086D01*
G37*
X53660086Y-52360086D02*
X53571209Y-52493099D01*
X53549859Y-52600436D01*
X53540000Y-52650000D01*
X53540000Y-53211820D01*
X53465158Y-53259979D01*
X53405793Y-53346864D01*
X53390000Y-53424851D01*
X53390000Y-53402261D01*
X53353462Y-53314051D01*
X53285949Y-53246538D01*
X53197739Y-53210000D01*
X52980000Y-53210000D01*
X52920002Y-53269998D01*
X52920002Y-53210000D01*
X52870109Y-53210000D01*
X52874329Y-53188785D01*
X52877261Y-53190000D01*
X52927500Y-53190000D01*
X52987500Y-53130000D01*
X52987500Y-52670000D01*
X53112500Y-52670000D01*
X53112500Y-53130000D01*
X53172500Y-53190000D01*
X53222739Y-53190000D01*
X53310949Y-53153462D01*
X53378462Y-53085949D01*
X53415000Y-52997739D01*
X53415000Y-52730000D01*
X53355000Y-52670000D01*
X53112500Y-52670000D01*
X52987500Y-52670000D01*
X52960000Y-52670000D01*
X52960000Y-52530000D01*
X52987500Y-52530000D01*
X52987500Y-52510000D01*
X53112500Y-52510000D01*
X53112500Y-52530000D01*
X53355000Y-52530000D01*
X53415000Y-52470000D01*
X53415000Y-52340093D01*
X53680079Y-52340093D01*
X53660086Y-52360086D01*
G36*
X50507500Y-49267500D02*
X52092500Y-49267500D01*
X52092500Y-49247500D01*
X52232500Y-49247500D01*
X52232500Y-49267500D01*
X52252500Y-49267500D01*
X52252500Y-49407500D01*
X52232500Y-49407500D01*
X52232500Y-50992500D01*
X52252500Y-50992500D01*
X52252500Y-51132500D01*
X52232500Y-51132500D01*
X52232500Y-51152500D01*
X52092500Y-51152500D01*
X52092500Y-51132500D01*
X50507500Y-51132500D01*
X50507500Y-51152500D01*
X50367500Y-51152500D01*
X50367500Y-51132500D01*
X50347500Y-51132500D01*
X50347500Y-50992500D01*
X50367500Y-50992500D01*
X50367500Y-49407500D01*
X50507500Y-49407500D01*
X50507500Y-50992500D01*
X52092500Y-50992500D01*
X52092500Y-49407500D01*
X50507500Y-49407500D01*
X50367500Y-49407500D01*
X50347500Y-49407500D01*
X50347500Y-49267500D01*
X50367500Y-49267500D01*
X50367500Y-49247500D01*
X50507500Y-49247500D01*
X50507500Y-49267500D01*
X50507500Y-49267500D01*
G37*
X50507500Y-49267500D02*
X52092500Y-49267500D01*
X52092500Y-49247500D01*
X52232500Y-49247500D01*
X52232500Y-49267500D01*
X52252500Y-49267500D01*
X52252500Y-49407500D01*
X52232500Y-49407500D01*
X52232500Y-50992500D01*
X52252500Y-50992500D01*
X52252500Y-51132500D01*
X52232500Y-51132500D01*
X52232500Y-51152500D01*
X52092500Y-51152500D01*
X52092500Y-51132500D01*
X50507500Y-51132500D01*
X50507500Y-51152500D01*
X50367500Y-51152500D01*
X50367500Y-51132500D01*
X50347500Y-51132500D01*
X50347500Y-50992500D01*
X50367500Y-50992500D01*
X50367500Y-49407500D01*
X50507500Y-49407500D01*
X50507500Y-50992500D01*
X52092500Y-50992500D01*
X52092500Y-49407500D01*
X50507500Y-49407500D01*
X50367500Y-49407500D01*
X50347500Y-49407500D01*
X50347500Y-49267500D01*
X50367500Y-49267500D01*
X50367500Y-49247500D01*
X50507500Y-49247500D01*
X50507500Y-49267500D01*
G36*
X48970000Y-50887500D02*
X48990000Y-50887500D01*
X48990000Y-51012500D01*
X48970000Y-51012500D01*
X48970000Y-51040000D01*
X48830000Y-51040000D01*
X48830000Y-51012500D01*
X48810000Y-51012500D01*
X48810000Y-50887500D01*
X48830000Y-50887500D01*
X48830000Y-50860000D01*
X48970000Y-50860000D01*
X48970000Y-50887500D01*
X48970000Y-50887500D01*
G37*
X48970000Y-50887500D02*
X48990000Y-50887500D01*
X48990000Y-51012500D01*
X48970000Y-51012500D01*
X48970000Y-51040000D01*
X48830000Y-51040000D01*
X48830000Y-51012500D01*
X48810000Y-51012500D01*
X48810000Y-50887500D01*
X48830000Y-50887500D01*
X48830000Y-50860000D01*
X48970000Y-50860000D01*
X48970000Y-50887500D01*
M02*
