M48
INCH,TZ
T1C0.012
T2C0.020
T3C0.094
%
G90
G05
T1
X1.5984Y-2.0709
X1.6693Y-2.0945
X1.6693Y-2.1457
X1.7559Y-2.0463
X1.8346Y-2.1801
X1.8543Y-2.0978
X1.8976Y-1.9646
X1.9134Y-1.8819
X1.9331Y-2.0709
X1.9409Y-2.189
X1.9685Y-1.937
X1.9685Y-2.
X1.9748Y-2.1677
X2.003Y-2.2323
X2.0039Y-2.2011
X2.0382Y-2.1027
X2.0992Y-2.1503
X2.1378Y-2.0591
X2.1496Y-1.9882
X2.1496Y-2.0181
X2.1622Y-2.149
X2.1866Y-2.0948
X2.2677Y-2.
X2.2953Y-2.0472
X2.3386Y-2.0709
T2
X1.8209Y-1.7323
X1.8701Y-1.7323
X1.9193Y-1.7323
X1.9685Y-1.7323
X2.0177Y-1.7323
X2.0669Y-1.7323
X2.1161Y-1.7323
T3
X1.6142Y-1.7323
X2.3228Y-1.7323
T0
M30
